<?xml version="1.0" encoding="UTF-8" standalone="no"?>
<svg width="62px" height="60px" viewBox="0 0 62 60" version="1.1" xmlns="http://www.w3.org/2000/svg" xmlns:xlink="http://www.w3.org/1999/xlink">
    <!-- Generator: Sketch 41 (35326) - http://www.bohemiancoding.com/sketch -->
    <title>clear_day</title>
    <desc>Created with Sketch.</desc>
    <defs></defs>
    <g id="Page-1" stroke="none" stroke-width="1" fill="none" fill-rule="evenodd">
        <g id="clear_day" fill="#FDB631">
            <g id="Page-1">
                <g id="clear_day">
                    <g id="Group">
                        <path d="M59.678,37.408 C59.032,36.837 58.356,36.332 57.702,35.843 C55.49,34.189 54.131,33.065 54.073,30.883 C54.02,28.847 55.216,27.775 57.172,26.194 C58.008,25.519 58.872,24.821 59.629,23.959 L61.126,22.254 L58.87,22.008 C58.287,21.945 57.686,21.902 57.105,21.86 C53.889,21.631 51.891,21.351 51.26,19.404 C50.718,17.732 51.036,15.637 51.344,13.61 C51.484,12.688 51.629,11.736 51.688,10.836 L51.819,8.845 L50.012,9.69 C47.466,10.881 45.648,11.436 44.293,11.436 C42.447,11.436 40.45,10.431 39.644,2.973 L39.329,0.061 L37.541,2.38 C34.651,6.121 32.625,7.789 30.972,7.789 C29.146,7.789 27.146,5.743 24.511,2.442 L22.985,0.529 L22.44,2.915 C22.262,3.695 22.153,4.49 22.048,5.259 C21.731,7.581 21.457,9.587 19.463,10.73 C18.818,11.1 18.161,11.279 17.454,11.279 C16.251,11.279 14.995,10.771 13.665,10.233 C12.796,9.882 11.899,9.518 10.956,9.273 L8.919,8.743 L9.531,10.757 C9.804,11.655 10.173,12.5 10.529,13.316 C11.579,15.72 12.165,17.287 11.034,19.133 C9.809,21.131 7.822,21.387 5.305,21.712 C4.511,21.814 3.69,21.92 2.872,22.093 L0.517,22.59 L2.355,24.146 C2.942,24.643 3.554,25.099 4.146,25.539 C6.465,27.263 7.888,28.432 7.929,30.648 C7.969,32.793 6.433,34.005 4.656,35.408 C3.918,35.991 3.155,36.593 2.478,37.29 L1.02,38.792 L3.061,39.26 C7.447,40.266 10.095,40.873 10.804,42.018 C11.534,43.197 10.896,45.846 9.738,50.654 L9.237,52.733 L11.263,52.047 C12.006,51.795 12.742,51.48 13.453,51.174 C14.849,50.575 16.168,50.009 17.298,50.009 C18.006,50.009 18.586,50.24 19.125,50.736 C20.391,51.902 21.174,53.827 21.931,55.688 C22.289,56.568 22.659,57.478 23.084,58.322 L23.855,59.854 L25.01,58.585 C25.456,58.095 25.862,57.528 26.291,56.928 C27.362,55.431 28.469,53.883 30.033,53.883 C30.272,53.883 30.527,53.917 30.792,53.984 C32.512,54.418 34.148,55.758 35.729,57.055 C36.458,57.653 37.212,58.271 37.971,58.797 L39.617,59.937 L39.815,57.945 C39.856,57.533 39.884,57.1 39.911,56.681 C40.064,54.307 40.208,52.065 42.47,50.796 C43.142,50.419 43.831,50.236 44.576,50.236 C45.928,50.236 47.36,50.831 48.876,51.46 C49.582,51.753 50.312,52.056 51.067,52.313 L53.573,53.165 L52.53,50.732 C52.322,50.247 52.103,49.769 51.891,49.307 C50.736,46.787 49.739,44.61 50.927,42.386 C51.983,40.41 53.8,40.112 56.677,39.788 C57.472,39.699 58.295,39.606 59.117,39.45 L61.483,39.002 L59.678,37.408 Z M48.859,30.882 C48.784,41.029 40.99,48.68 30.731,48.68 C30.664,48.68 30.595,48.68 30.528,48.679 C25.847,48.632 21.43,46.702 18.092,43.245 C14.749,39.783 12.935,35.254 12.985,30.493 C13.086,20.747 21.2,12.819 31.073,12.819 C31.146,12.819 31.22,12.819 31.294,12.82 C41.217,12.936 48.934,20.87 48.859,30.882 Z" id="Shape"></path>
                        <path d="M40.334,19.938 C43.251,20.786 46.221,27.141 45.959,31.631 C45.526,39.05 40.507,44.902 33.498,46.113 C26.58,47.308 20.493,43.374 18.964,40.006 C25.731,43.824 32.177,43.768 37.74,38.509 C43.331,33.225 43.704,26.784 40.334,19.938 Z" id="Shape"></path>
                    </g>
                </g>
            </g>
        </g>
    </g>
</svg>