<?xml version="1.0" encoding="UTF-8" standalone="no"?>
<svg width="62px" height="60px" viewBox="0 0 62 60" version="1.1" xmlns="http://www.w3.org/2000/svg" xmlns:xlink="http://www.w3.org/1999/xlink">
    <!-- Generator: Sketch 41 (35326) - http://www.bohemiancoding.com/sketch -->
    <title>clear_night</title>
    <desc>Created with Sketch.</desc>
    <defs></defs>
    <g id="Page-1" stroke="none" stroke-width="1" fill="none" fill-rule="evenodd">
        <g id="clear_night">
            <g id="Page-1">
                <g id="clear_night">
                    <g id="Group">
                        <path d="M29.568,59.657 C28.569,59.657 27.55,59.611 26.538,59.521 C18.677,58.821 12.138,55.238 7.104,48.873 C6.124,47.635 5.261,46.325 4.427,45.057 C4.063,44.505 3.7,43.953 3.327,43.407 C2.384,42.028 2.428,40.514 3.444,39.358 C4.361,38.313 5.657,37.997 7.192,38.57 C10.963,39.977 14.731,40.526 18.401,40.199 C24.609,39.649 29.901,37.032 34.13,32.42 C37.561,28.679 39.678,24.279 40.421,19.342 C41.132,14.623 40.389,9.888 38.213,5.271 C37.928,4.665 37.345,3.425 38.127,2.024 C38.707,0.987 39.877,0.344 41.18,0.344 C41.793,0.344 42.413,0.487 42.972,0.757 C46.346,2.389 49.322,4.455 51.815,6.899 C56.774,11.759 59.767,17.669 60.711,24.464 C60.858,25.523 60.939,26.579 61.016,27.6 C61.05,28.049 61.085,28.498 61.125,28.946 L61.133,29.116 C61.146,41.773 53.294,52.928 41.127,57.535 C37.409,58.943 33.521,59.657 29.568,59.657 Z M7.571,42.791 C7.601,42.836 7.631,42.882 7.661,42.927 C8.486,44.181 9.266,45.364 10.142,46.47 C14.49,51.968 20.123,55.062 26.883,55.663 C31.316,56.058 35.647,55.469 39.755,53.914 C50.374,49.893 57.237,40.199 57.26,29.203 C57.222,28.767 57.188,28.331 57.155,27.895 C57.078,26.889 57.006,25.938 56.875,24.998 C56.052,19.07 53.437,13.911 49.103,9.664 C47.138,7.738 44.82,6.072 42.203,4.704 C44.334,9.689 45.022,14.8 44.251,19.919 C43.391,25.632 40.947,30.718 36.985,35.037 C32.083,40.383 25.946,43.418 18.745,44.056 C15.063,44.381 11.313,43.956 7.571,42.791 Z" id="Shape" fill="#9B9B9B"></path>
                        <path d="M15.357,1.103 C15.691,1.817 16.007,2.54 16.37,3.238 C16.483,3.456 16.694,3.666 16.912,3.779 C17.576,4.124 18.264,4.419 19.065,4.79 C18.327,5.131 17.663,5.397 17.043,5.742 C16.749,5.905 16.467,6.179 16.304,6.471 C15.96,7.088 15.698,7.751 15.349,8.512 C15.008,7.772 14.742,7.105 14.396,6.483 C14.232,6.189 13.954,5.91 13.66,5.746 C13.043,5.403 12.382,5.142 11.625,4.795 C12.387,4.44 13.067,4.157 13.712,3.807 C13.974,3.665 14.23,3.416 14.362,3.152 C14.694,2.488 14.953,1.788 15.242,1.102 C15.28,1.103 15.318,1.103 15.357,1.103 Z" id="Shape" fill="#F6A623"></path>
                        <path d="M18.261,27.403 C18.595,28.117 18.911,28.84 19.274,29.538 C19.387,29.756 19.598,29.966 19.816,30.079 C20.48,30.424 21.168,30.719 21.969,31.09 C21.231,31.431 20.567,31.697 19.947,32.042 C19.653,32.205 19.371,32.479 19.208,32.771 C18.864,33.388 18.602,34.051 18.253,34.812 C17.912,34.072 17.646,33.405 17.3,32.783 C17.136,32.489 16.858,32.21 16.564,32.046 C15.947,31.703 15.286,31.442 14.529,31.095 C15.291,30.74 15.971,30.457 16.616,30.107 C16.878,29.965 17.134,29.716 17.266,29.452 C17.598,28.788 17.857,28.088 18.146,27.402 C18.184,27.403 18.222,27.403 18.261,27.403 Z" id="Shape" fill="#F6A623"></path>
                        <path d="M27.543,22.876 C26.912,21.504 26.433,20.304 25.812,19.182 C25.517,18.649 25.023,18.14 24.494,17.841 C23.375,17.208 22.174,16.719 20.79,16.069 C22.19,15.405 23.43,14.87 24.612,14.229 C25.061,13.985 25.493,13.559 25.734,13.11 C26.36,11.943 26.877,10.716 27.54,9.292 C28.188,10.674 28.707,11.906 29.343,13.075 C29.603,13.553 30.049,14.014 30.525,14.272 C31.685,14.899 32.912,15.403 34.337,16.059 C32.974,16.686 31.782,17.152 30.678,17.776 C30.116,18.094 29.585,18.622 29.269,19.183 C28.641,20.297 28.173,21.498 27.543,22.876 Z" id="Shape" fill="#F6A623"></path>
                        <path d="M6.345,15.551 C6.714,16.331 7.084,16.895 7.253,17.514 C7.654,18.987 8.682,19.735 10.029,20.213 C10.587,20.411 11.111,20.702 11.819,21.028 C10.729,21.538 9.744,21.943 8.818,22.456 C8.406,22.684 8.014,23.074 7.785,23.486 C7.278,24.401 6.881,25.377 6.355,26.508 C5.857,25.455 5.39,24.546 4.997,23.606 C4.738,22.986 4.334,22.602 3.718,22.348 C2.807,21.972 1.925,21.526 0.868,21.034 C1.994,20.508 2.997,20.081 3.954,19.569 C4.32,19.373 4.676,19.03 4.871,18.666 C5.389,17.701 5.816,16.687 6.345,15.551 Z" id="Shape" fill="#F6A623"></path>
                    </g>
                </g>
            </g>
        </g>
    </g>
</svg>