<?xml version="1.0" encoding="UTF-8" standalone="no"?>
<svg width="62px" height="48px" viewBox="0 0 62 48" version="1.1" xmlns="http://www.w3.org/2000/svg" xmlns:xlink="http://www.w3.org/1999/xlink">
    <!-- Generator: Sketch 41 (35326) - http://www.bohemiancoding.com/sketch -->
    <title>cloudy</title>
    <desc>Created with Sketch.</desc>
    <defs></defs>
    <g id="Page-1" stroke="none" stroke-width="1" fill="none" fill-rule="evenodd">
        <g id="cloudy" fill="#9B9B9B">
            <g id="Page-1">
                <g id="cloudy">
                    <g id="Group">
                        <path d="M48.459,27.188 L48.075,27.188 C48.158,23.584 47.338,20.572 45.567,17.979 C43.344,14.74 40.246,12.637 36.357,11.727 C35.372,11.508 34.373,11.398 33.39,11.398 C29.573,11.398 24.311,13.074 20.998,17.768 L20.99,17.779 C19.774,17.293 18.429,17.036 17.103,17.036 C11.669,17.036 6.989,21.266 6.449,26.659 L6.445,26.661 C5.878,26.988 5.377,27.32 4.862,27.71 C3.325,28.924 2.11,30.558 1.345,32.439 C0.149,35.479 0.328,38.867 1.834,41.734 C3.951,45.792 7.547,47.941 12.233,47.951 L46.98,47.951 C47.782,47.951 48.387,47.951 48.962,47.932 C52.112,47.825 55.009,46.273 56.912,43.675 C58.806,41.064 59.392,37.828 58.519,34.796 C57.224,30.265 53.182,27.208 48.459,27.188 Z M47.448,45.029 L12.235,45.019 C8.667,45.01 6.04,43.45 4.426,40.382 C3.322,38.262 3.193,35.757 4.07,33.517 C4.637,32.126 5.53,30.919 6.644,30.033 C7.282,29.55 7.858,29.201 8.456,28.934 L9.307,28.549 L9.321,27.625 C9.391,23.402 12.882,19.966 17.103,19.966 C18.411,19.966 19.696,20.295 20.822,20.921 L22.063,21.596 L22.925,20.15 C23.004,20.022 23.081,19.893 23.188,19.748 C25.839,15.752 30.196,14.329 33.39,14.329 C34.198,14.329 34.977,14.413 35.699,14.579 C38.857,15.323 41.359,17.026 43.137,19.643 C44.761,21.994 45.388,24.942 45.049,28.695 L45.049,30.128 L48.457,30.128 C51.86,30.137 54.769,32.337 55.697,35.606 C56.322,37.76 55.9,40.074 54.542,41.951 C53.18,43.81 51.103,44.921 48.84,45 C48.426,45.02 47.974,45.029 47.448,45.029 Z" id="Shape"></path>
                        <path d="M59.772,26.09 C59.123,26.99 58.301,27.755 57.371,28.336 C56.471,27.474 55.445,26.748 54.331,26.187 C55.464,25.887 56.461,25.18 57.187,24.193 C58.165,22.847 58.465,21.182 58.02,19.624 C57.352,17.252 55.242,15.655 52.773,15.655 L49.646,15.655 L49.646,14.038 C49.907,11.211 49.452,8.994 48.242,7.223 C46.896,5.267 45.018,3.999 42.676,3.447 C42.124,3.321 41.553,3.263 40.962,3.263 C38.581,3.263 35.328,4.328 33.343,7.31 C33.237,7.475 33.13,7.629 33.043,7.775 L32.307,9.014 L32.25,9.12 L32.085,9.033 L30.885,8.375 C30.062,7.92 29.133,7.678 28.194,7.678 C25.319,7.678 22.908,9.876 22.589,12.664 L22.589,12.674 C21.718,13.332 20.885,14.097 20.12,14.978 C19.133,14.736 18.116,14.62 17.1,14.62 C16.955,14.62 16.819,14.62 16.674,14.63 C17.119,14.01 17.681,13.439 18.31,12.936 C18.726,12.626 19.075,12.384 19.404,12.2 C19.965,7.844 23.78,4.465 28.194,4.465 C29.152,4.465 30.14,4.639 31.079,4.959 C33.79,1.348 37.933,0.051 40.963,0.051 C41.796,0.051 42.618,0.138 43.393,0.312 C46.568,1.067 49.095,2.781 50.886,5.414 C52.261,7.418 52.938,9.722 52.938,12.442 C56.781,12.519 60.053,15.027 61.109,18.725 C61.834,21.24 61.35,23.922 59.772,26.09 Z" id="Shape"></path>
                    </g>
                </g>
            </g>
        </g>
    </g>
</svg>