<?xml version="1.0" encoding="UTF-8" standalone="no"?>
<svg width="62px" height="50px" viewBox="0 0 62 50" version="1.1" xmlns="http://www.w3.org/2000/svg" xmlns:xlink="http://www.w3.org/1999/xlink">
    <!-- Generator: Sketch 41 (35326) - http://www.bohemiancoding.com/sketch -->
    <title>fog</title>
    <desc>Created with Sketch.</desc>
    <defs></defs>
    <g id="Page-1" stroke="none" stroke-width="1" fill="none" fill-rule="evenodd">
        <g id="fog">
            <g id="Page-1">
                <g id="fog">
                    <g id="Group">
                        <path d="M49.439,10.683 L49.56,8.775 L47.829,9.585 C45.381,10.73 43.632,11.26 42.329,11.26 C40.551,11.26 38.634,10.292 37.862,3.126 L37.555,0.325 L35.833,2.558 C33.06,6.15 31.115,7.751 29.523,7.751 C27.764,7.751 25.847,5.787 23.307,2.614 L21.846,0.771 L21.325,3.07 C21.148,3.815 21.046,4.587 20.943,5.322 C20.636,7.555 20.375,9.482 18.458,10.58 C17.835,10.934 17.211,11.11 16.532,11.11 C15.369,11.11 14.168,10.617 12.884,10.105 C12.046,9.761 11.19,9.416 10.278,9.184 L8.324,8.672 L8.91,10.608 C9.171,11.473 9.524,12.283 9.869,13.065 C10.883,15.382 11.442,16.88 10.353,18.658 C9.18,20.584 7.273,20.826 4.853,21.143 C4.09,21.236 3.299,21.338 2.508,21.506 L0.246,21.98 L2.014,23.478 C2.572,23.953 3.168,24.39 3.736,24.818 C5.96,26.475 7.328,27.601 7.375,29.732 C7.412,31.789 5.933,32.952 4.22,34.301 C3.513,34.869 2.778,35.446 2.126,36.116 L0.73,37.559 L2.694,38.006 C6.221,38.816 8.575,39.355 9.646,40.156 L14.187,37.764 C12.884,35.251 12.205,32.459 12.233,29.584 C12.326,20.213 20.125,12.591 29.617,12.591 L29.831,12.591 C36.383,12.665 41.92,16.286 44.739,21.655 L49.187,19.31 C49.122,19.189 49.075,19.059 49.029,18.919 C48.508,17.318 48.815,15.299 49.103,13.354 C49.243,12.47 49.383,11.548 49.439,10.683 Z" id="Shape" fill="#F6A623"></path>
                        <path d="M60.358,27.424 L18.48,27.424 C17.709,27.424 17.084,26.799 17.084,26.028 C17.084,25.257 17.709,24.632 18.48,24.632 L60.358,24.632 C61.129,24.632 61.754,25.257 61.754,26.028 C61.754,26.799 61.128,27.424 60.358,27.424 Z" id="Shape" fill="#9B9B9B"></path>
                        <path d="M57.101,35.25 L21.737,35.25 C20.966,35.25 20.341,34.625 20.341,33.854 C20.341,33.083 20.966,32.458 21.737,32.458 L57.1,32.458 C57.871,32.458 58.496,33.083 58.496,33.854 C58.496,34.625 57.871,35.25 57.101,35.25 Z" id="Shape" fill="#9B9B9B"></path>
                        <path d="M56.635,49.675 L11.966,49.675 C11.195,49.675 10.57,49.05 10.57,48.279 C10.57,47.508 11.195,46.883 11.966,46.883 L56.635,46.883 C57.406,46.883 58.031,47.508 58.031,48.279 C58.031,49.05 57.406,49.675 56.635,49.675 Z" id="Shape" fill="#9B9B9B"></path>
                        <path d="M52.448,43.077 L19.876,43.077 C19.105,43.077 18.48,42.452 18.48,41.681 C18.48,40.91 19.105,40.285 19.876,40.285 L52.447,40.285 C53.218,40.285 53.843,40.91 53.843,41.681 C53.843,42.452 53.218,43.077 52.448,43.077 Z" id="Shape" fill="#9B9B9B"></path>
                    </g>
                </g>
            </g>
        </g>
    </g>
</svg>