<?xml version="1.0" encoding="UTF-8" standalone="no"?>
<svg width="70px" height="70px" viewBox="0 0 81 83" version="1.1" xmlns="http://www.w3.org/2000/svg" xmlns:xlink="http://www.w3.org/1999/xlink">
    <!-- Generator: Sketch 41 (35326) - http://www.bohemiancoding.com/sketch -->
    <title>noun_39815_cc</title>
    <desc>Created with Sketch.</desc>
    <defs></defs>
    <g id="Page-1" stroke="none" stroke-width="1" fill="none" fill-rule="evenodd">
        <g id="noun_39815_cc" fill="#9B9B9B">
            <path d="M24.334,26.383 C27.726,25.818 35.168,25.333 40.82,25.333 C47.765,25.333 52.853,26.948 56.083,29.855 C59.072,32.439 61.848,38.396 61.848,43.242 C61.848,48.169 60.395,53.045 57.649,55.871 C53.934,59.828 46.878,62.848 40.013,62.848 C37.913,62.848 35.975,62.766 34.36,62.363 L34.36,82.168 L24.334,82.168 L24.334,26.383 Z M34.359,54.629 C35.894,55.033 37.832,55.194 40.173,55.194 C48.652,55.194 53.821,51.075 53.821,43.564 C53.821,36.377 48.734,33.905 40.981,33.905 C37.912,33.905 35.57,34.147 34.358,34.47 L34.358,54.629 L34.359,54.629 Z" id="Shape"></path>
            <polygon id="Shape" points="80.5 24.5 40.167 11.5 0.167 24.5 0.167 13.833 39.833 0.833 80.5 13.833"></polygon>
        </g>
    </g>
</svg>
