<?xml version="1.0" encoding="UTF-8" standalone="no"?>
<svg width="62px" height="50px" viewBox="0 0 62 50" version="1.1" xmlns="http://www.w3.org/2000/svg" xmlns:xlink="http://www.w3.org/1999/xlink">
    <!-- Generator: Sketch 41 (35326) - http://www.bohemiancoding.com/sketch -->
    <title>partly_cloudy_day</title>
    <desc>Created with Sketch.</desc>
    <defs></defs>
    <g id="Page-1" stroke="none" stroke-width="1" fill="none" fill-rule="evenodd">
        <g id="partly_cloudy_day" transform="translate(-1.000000, 0.000000)">
            <g id="Page-1">
                <g id="partly_cloudy_day">
                    <g id="Group">
                        <path d="M53.348,49.729 C56.411,49.624 59.23,48.113 61.082,45.584 C62.923,43.045 63.493,39.897 62.643,36.948 C61.425,32.684 57.779,29.786 53.353,29.561 L52.725,29.53 L52.712,28.901 C52.65,25.801 51.856,23.176 50.285,20.875 C48.138,17.747 45.141,15.715 41.38,14.834 C40.435,14.625 39.469,14.517 38.516,14.517 C35.024,14.517 30.144,15.999 26.925,20.157 L26.634,20.532 L26.183,20.385 C25.172,20.057 24.076,19.883 23.013,19.883 C17.868,19.883 13.437,23.722 12.707,28.813 L12.662,29.127 L12.392,29.293 C11.988,29.54 11.614,29.796 11.216,30.099 C9.734,31.27 8.552,32.86 7.809,34.689 C6.65,37.634 6.823,40.925 8.287,43.71 C9.38,45.799 11.174,47.665 13.211,48.835 C14.684,49.68 16.116,49.749 17.702,49.749 L30.551,49.744 L51.452,49.744 C52.239,49.746 52.795,49.746 53.348,49.729 Z M18.381,46.523 C16.196,46.515 14.389,45.888 13.006,44.661 C12.668,44.37 12.339,44.017 12.036,43.621 C11.715,43.213 11.42,42.756 11.139,42.232 C10.114,40.263 9.992,37.95 10.801,35.882 C11.331,34.583 12.15,33.471 13.173,32.658 C13.779,32.198 14.316,31.873 14.872,31.625 L15.804,31.203 L15.819,30.188 C15.884,26.284 19.111,23.109 23.011,23.109 C24.22,23.109 25.409,23.415 26.452,23.994 L27.811,24.734 L28.734,23.186 C28.812,23.058 28.881,22.944 29,22.78 C31.46,19.072 35.531,17.742 38.515,17.742 C39.266,17.742 39.988,17.82 40.659,17.973 C43.616,18.67 45.956,20.263 47.618,22.712 C49.13,24.901 49.712,27.699 49.394,31.261 L49.396,32.781 L52.855,32.781 C55.998,32.789 58.685,34.823 59.542,37.843 C60.116,39.825 59.729,41.957 58.478,43.687 C57.219,45.406 55.299,46.432 53.207,46.506 C52.819,46.522 52.393,46.532 51.896,46.532 L18.381,46.523 Z" id="Shape" fill="#9B9B9B"></path>
                        <path d="M18.559,7.59 L18.684,7.59 C23.553,7.642 27.499,10.975 28.527,15.522 C30.873,14.089 33.428,13.445 35.566,13.331 L35.846,13.02 L34.548,12.875 C34.216,12.844 33.873,12.813 33.541,12.792 C31.683,12.657 30.54,12.501 30.177,11.38 C29.866,10.414 30.042,9.21 30.219,8.047 C30.302,7.517 30.385,6.967 30.416,6.448 L30.499,5.306 L29.45,5.784 C27.986,6.469 26.948,6.791 26.159,6.791 C25.1,6.791 23.958,6.22 23.491,1.922 L23.304,0.25 L22.276,1.579 C20.615,3.739 19.452,4.694 18.497,4.694 C17.448,4.694 16.296,3.521 14.78,1.621 L13.908,0.52 L13.586,1.89 C13.482,2.336 13.42,2.793 13.368,3.24 C13.181,4.569 13.025,5.732 11.873,6.386 C11.51,6.594 11.125,6.698 10.721,6.698 C10.025,6.698 9.309,6.407 8.541,6.096 C8.043,5.899 7.524,5.691 6.984,5.546 L5.81,5.243 L6.163,6.395 C6.319,6.914 6.537,7.402 6.734,7.869 C7.336,9.26 7.679,10.153 7.025,11.223 C6.319,12.365 5.177,12.521 3.734,12.708 C3.277,12.76 2.8,12.822 2.332,12.926 L0.972,13.206 L2.03,14.11 C2.373,14.39 2.726,14.65 3.058,14.909 C4.397,15.895 5.218,16.57 5.238,17.847 C5.259,19.083 4.376,19.778 3.359,20.588 C2.933,20.92 2.497,21.263 2.103,21.668 L1.262,22.53 L2.435,22.8 C4.958,23.381 6.484,23.734 6.889,24.389 C7.315,25.064 6.941,26.59 6.276,29.362 L5.996,30.556 L7.159,30.161 C7.398,30.078 7.626,29.985 7.855,29.891 C8.208,29.528 8.571,29.195 8.966,28.884 C9.361,28.583 9.734,28.334 10.139,28.085 L10.409,27.919 L10.461,27.607 C10.586,26.745 10.814,25.925 11.136,25.146 L11.084,25.094 C9.163,23.101 8.125,20.494 8.146,17.753 C8.208,12.148 12.88,7.59 18.559,7.59 Z" id="Shape" fill="#F6A623"></path>
                        <path d="M13.496,23.756 C11.973,23.272 10.494,19.892 10.69,17.534 C11.014,13.638 13.73,10.626 17.431,10.08 C21.085,9.542 24.235,11.689 24.995,13.48 C21.486,11.384 18.095,11.33 15.101,14.023 C12.093,16.73 11.813,20.112 13.496,23.756 Z" id="Shape" fill="#F6A623"></path>
                    </g>
                </g>
            </g>
        </g>
    </g>
</svg>