<?xml version="1.0" encoding="UTF-8" standalone="no"?>
<svg width="62px" height="62px" viewBox="0 0 62 62" version="1.1" xmlns="http://www.w3.org/2000/svg" xmlns:xlink="http://www.w3.org/1999/xlink">
    <!-- Generator: Sketch 41 (35326) - http://www.bohemiancoding.com/sketch -->
    <title>partly_cloudy_night</title>
    <desc>Created with Sketch.</desc>
    <defs></defs>
    <g id="Page-1" stroke="none" stroke-width="1" fill="none" fill-rule="evenodd">
        <g id="partly_cloudy_night">
            <g id="Page-1">
                <g id="partly_cloudy_night">
                    <g id="Group">
                        <path d="M61.979,20.48 C61.96,20.509 61.95,20.538 61.94,20.567 C61.543,21.341 61.165,22.077 60.73,22.765 C58.561,26.221 55.512,28.36 51.649,29.125 C51.078,29.241 50.516,29.319 49.945,29.377 C49.751,29.058 49.548,28.738 49.335,28.419 C46.547,24.353 42.665,21.71 37.776,20.568 C36.547,20.287 35.259,20.142 33.952,20.142 C33.846,20.142 33.729,20.142 33.613,20.152 C33.022,18.787 32.616,17.316 32.451,15.776 C32.451,15.524 32.441,15.273 32.432,15.021 C32.413,14.43 32.393,13.879 32.413,13.327 C32.51,9.852 33.701,6.715 35.927,3.995 C36.943,2.756 38.173,1.652 39.596,0.694 C38.686,3.705 38.609,6.696 39.373,9.6 C40.235,12.843 41.958,15.621 44.523,17.867 C47.689,20.645 51.416,22.001 55.608,21.923 C57.758,21.874 59.897,21.39 61.979,20.48 Z" id="Shape" fill="#000000"></path>
                        <path d="M59.928,47.715 C58.592,43.029 54.41,39.873 49.531,39.844 L49.134,39.844 C49.221,36.127 48.369,33.009 46.54,30.328 C44.246,26.978 41.041,24.81 37.024,23.871 C36.008,23.639 34.972,23.532 33.955,23.532 C30.005,23.532 24.574,25.255 21.147,30.115 L21.137,30.125 C19.879,29.622 18.494,29.36 17.119,29.36 C11.504,29.36 6.664,33.726 6.102,39.302 C5.511,39.641 4.998,39.989 4.466,40.386 C2.878,41.644 1.62,43.329 0.826,45.275 C-0.403,48.421 -0.22,51.926 1.339,54.888 C3.139,58.329 5.97,60.407 9.593,61.067 L9.549,61.306 L48.001,61.306 C48.834,61.306 49.453,61.306 50.053,61.296 C53.306,61.18 56.297,59.573 58.262,56.891 C60.228,54.192 60.828,50.842 59.928,47.715 Z M55.823,55.112 C54.41,57.029 52.26,58.181 49.927,58.268 C49.491,58.278 49.027,58.287 48.485,58.287 L12.55,58.278 L12.551,58.277 L12.086,58.277 C9.656,58.277 7.652,57.58 6.113,56.215 C5.726,55.876 5.358,55.489 5.019,55.053 C4.651,54.579 4.322,54.066 4.012,53.485 C2.87,51.297 2.744,48.712 3.644,46.389 C4.235,44.956 5.154,43.707 6.306,42.788 C6.964,42.294 7.564,41.936 8.184,41.655 L9.065,41.258 L9.075,40.3 C9.152,35.934 12.754,32.381 17.12,32.381 C18.475,32.381 19.802,32.73 20.963,33.368 L22.241,34.075 L23.132,32.584 C23.219,32.448 23.297,32.313 23.413,32.158 C26.153,28.024 30.654,26.553 33.955,26.553 C34.788,26.553 35.591,26.64 36.346,26.814 C39.608,27.588 42.193,29.341 44.033,32.051 C45.708,34.481 46.356,37.53 46.008,41.412 L46.008,42.893 L49.532,42.893 C53.046,42.893 56.057,45.168 57.015,48.547 C57.663,50.775 57.227,53.166 55.823,55.112 Z" id="Shape" fill="#9B9B9B"></path>
                    </g>
                </g>
            </g>
        </g>
    </g>
</svg>