<?xml version="1.0" encoding="UTF-8" standalone="no"?>
<svg width="62px" height="62px" viewBox="0 0 62 62" version="1.1" xmlns="http://www.w3.org/2000/svg" xmlns:xlink="http://www.w3.org/1999/xlink">
    <!-- Generator: Sketch 41 (35326) - http://www.bohemiancoding.com/sketch -->
    <title>rain</title>
    <desc>Created with Sketch.</desc>
    <defs></defs>
    <g id="Page-1" stroke="none" stroke-width="1" fill="none" fill-rule="evenodd">
        <g id="rain">
            <g id="Page-1">
                <g id="rain">
                    <g id="Group">
                        <path d="M32.454,41.359 C32.601,41.786 32.677,41.903 32.676,42.019 C32.639,44.282 32.719,46.557 32.508,48.804 C32.348,50.508 30.605,51.662 28.78,51.603 C27.049,51.547 25.473,50.149 25.244,48.49 C25.049,47.07 25.354,45.793 26.579,44.981 C28.458,43.738 30.412,42.609 32.454,41.359 Z" id="Shape" fill="#4990E2"></path>
                        <path d="M22.443,51.548 C22.59,51.975 22.666,52.092 22.665,52.208 C22.628,54.471 22.708,56.746 22.497,58.993 C22.337,60.697 20.594,61.851 18.769,61.792 C17.038,61.736 15.462,60.338 15.233,58.679 C15.038,57.259 15.343,55.982 16.568,55.17 C18.447,53.927 20.402,52.799 22.443,51.548 Z" id="Shape" fill="#4990E2"></path>
                        <path d="M14.182,44.306 C14.329,44.733 14.405,44.85 14.404,44.966 C14.367,47.229 14.447,49.504 14.236,51.751 C14.076,53.455 12.333,54.609 10.508,54.55 C8.777,54.494 7.201,53.096 6.972,51.437 C6.777,50.017 7.082,48.74 8.307,47.928 C10.185,46.684 12.14,45.556 14.182,44.306 Z" id="Shape" fill="#4990E2"></path>
                        <path d="M48.163,39.584 C48.31,40.011 48.386,40.128 48.385,40.244 C48.348,42.507 48.428,44.782 48.217,47.029 C48.057,48.733 46.314,49.887 44.489,49.828 C42.758,49.772 41.182,48.374 40.953,46.715 C40.758,45.295 41.063,44.018 42.288,43.206 C44.166,41.963 46.121,40.835 48.163,39.584 Z" id="Shape" fill="#4990E2"></path>
                        <path d="M40.767,51.548 C40.914,51.975 40.99,52.092 40.989,52.208 C40.952,54.471 41.032,56.746 40.821,58.993 C40.661,60.697 38.918,61.851 37.093,61.792 C35.362,61.736 33.786,60.338 33.557,58.679 C33.362,57.259 33.667,55.982 34.892,55.17 C36.771,53.927 38.726,52.799 40.767,51.548 Z" id="Shape" fill="#4990E2"></path>
                        <path d="M26.638,30.573 C26.785,31 26.861,31.117 26.86,31.233 C26.823,33.496 26.903,35.771 26.692,38.018 C26.532,39.722 24.789,40.876 22.964,40.817 C21.233,40.761 19.657,39.363 19.428,37.704 C19.233,36.284 19.538,35.007 20.763,34.195 C22.642,32.952 24.597,31.824 26.638,30.573 Z" id="Shape" fill="#4990E2"></path>
                        <path d="M43.188,30.573 C43.335,31 43.411,31.117 43.41,31.233 C43.373,33.496 43.453,35.771 43.242,38.018 C43.082,39.722 41.339,40.876 39.514,40.817 C37.783,40.761 36.207,39.363 35.978,37.704 C35.783,36.284 36.088,35.007 37.313,34.195 C39.191,32.952 41.146,31.824 43.188,30.573 Z" id="Shape" fill="#4990E2"></path>
                        <path d="M59.09,33.565 C57.125,36.247 54.124,37.854 50.871,37.97 C50.59,37.97 50.29,37.98 49.98,37.98 L49.941,37.99 C49.883,37.99 49.825,38 49.757,38 C49.041,38 48.411,37.448 48.324,36.693 C48.218,35.87 48.779,35.125 49.573,35.018 L49.805,34.989 C49.795,34.979 50.454,34.95 50.744,34.941 C53.087,34.854 55.226,33.702 56.64,31.785 C58.044,29.839 58.479,27.448 57.831,25.221 C56.873,21.842 53.872,19.567 50.348,19.567 L46.824,19.567 L46.824,18.086 C47.172,14.204 46.534,11.155 44.849,8.725 C43.01,6.024 40.425,4.262 37.162,3.488 C36.417,3.323 35.603,3.236 34.771,3.236 C31.47,3.236 26.968,4.707 24.229,8.831 C24.113,8.986 24.035,9.121 23.958,9.257 L23.067,10.748 L21.779,10.041 C20.617,9.402 19.291,9.063 17.936,9.063 C13.58,9.063 9.969,12.606 9.891,16.972 L9.881,17.93 L9,18.327 C8.38,18.608 7.79,18.966 7.122,19.46 C5.98,20.38 5.05,21.629 4.469,23.061 C3.559,25.384 3.695,27.969 4.837,30.157 C5.147,30.738 5.476,31.251 5.844,31.725 C6.173,32.161 6.541,32.548 6.928,32.887 C8.467,34.252 10.471,34.949 12.901,34.959 L13.695,35.046 C14.421,35.211 14.924,35.917 14.828,36.692 C14.731,37.447 14.112,37.999 13.386,37.999 C13.328,37.999 13.26,37.989 13.202,37.98 L12.747,37.98 C7.984,37.922 4.325,35.705 2.156,31.562 C0.597,28.6 0.414,25.095 1.653,21.949 C2.437,20.003 3.696,18.319 5.283,17.06 C5.815,16.663 6.338,16.315 6.919,15.976 L6.929,15.976 C7.481,10.4 12.321,6.034 17.936,6.034 C19.311,6.034 20.695,6.295 21.954,6.799 L21.964,6.789 C25.391,1.939 30.832,0.206 34.772,0.206 C35.789,0.206 36.824,0.312 37.841,0.545 C41.859,1.484 45.063,3.653 47.367,7.002 C49.197,9.684 50.039,12.801 49.952,16.528 L50.349,16.528 C55.238,16.547 59.41,19.703 60.746,24.389 C61.656,27.515 61.046,30.864 59.09,33.565 Z" id="Shape" fill="#9B9B9B"></path>
                    </g>
                </g>
            </g>
        </g>
    </g>
</svg>