<?xml version="1.0" encoding="UTF-8" standalone="no"?>
<svg width="70px" height="70px" viewBox="0 0 40 93" version="1.1" xmlns="http://www.w3.org/2000/svg" xmlns:xlink="http://www.w3.org/1999/xlink">
    <!-- Generator: Sketch 41 (35326) - http://www.bohemiancoding.com/sketch -->
    <title>noun_44619_cc</title>
    <desc>Created with Sketch.</desc>
    <defs></defs>
    <g id="Page-1" stroke="none" stroke-width="1" fill="none" fill-rule="evenodd">
        <g id="noun_44619_cc">
            <g id="Group" fill="#9B9B9B">
                <circle id="Oval" cx="12.363" cy="6.646" r="5.797"></circle>
                <path d="M23.426,35.671 L19.305,17.14 C18.783,14.796 16.461,13.318 14.116,13.84 L13.409,13.997 C11.065,14.518 9.589,16.841 10.11,19.185 L14.23,37.717 C14.752,40.061 17.075,41.537 19.419,41.017 L20.127,40.86 C22.471,40.339 23.948,38.015 23.426,35.671 Z" id="Shape"></path>
                <path d="M32.849,33.103 L18.648,33.103 C16.447,33.103 14.663,34.887 14.663,37.089 C14.663,39.29 16.447,41.074 18.648,41.074 L32.849,41.074 C35.05,41.074 36.834,39.29 36.834,37.089 C36.834,34.887 35.052,33.103 32.849,33.103 Z" id="Shape"></path>
                <path d="M33.864,33.972 C32.223,33.972 30.893,35.302 30.893,36.943 L30.893,54.769 C30.893,56.409 32.223,57.74 33.864,57.74 C35.505,57.74 36.834,56.409 36.834,54.769 L36.834,36.943 C36.834,35.302 35.505,33.972 33.864,33.972 Z" id="Shape"></path>
                <path d="M13.214,42.31 L9.218,24.801 C8.761,22.797 7.298,21.422 5.953,21.73 C4.606,22.036 3.887,23.912 4.344,25.915 L8.342,43.424 C8.799,45.429 10.26,46.803 11.606,46.496 C12.952,46.189 13.673,44.314 13.214,42.31 Z" id="Shape"></path>
                <path d="M27.053,42.378 L11.692,42.378 C10.212,42.378 9.01,43.319 9.01,44.48 C9.01,45.641 10.211,46.581 11.692,46.581 L27.053,46.581 C28.533,46.581 29.734,45.641 29.734,44.48 C29.734,43.319 28.533,42.378 27.053,42.378 Z" id="Shape"></path>
                <polygon id="Shape" points="9.773 92.336 6.299 92.336 14.955 44.932 18.43 45.575"></polygon>
                <rect id="Rectangle-path" x="13.942" y="58.342" width="25.837" height="3.534"></rect>
                <rect id="Rectangle-path" x="4.09" y="64.453" width="7.773" height="2.119"></rect>
                <rect id="Rectangle-path" x="2.676" y="74.936" width="7.774" height="2.121"></rect>
                <rect id="Rectangle-path" x="0.557" y="84.947" width="7.774" height="2.12"></rect>
            </g>
            <path d="M26.861,68.167 L26.861,85.067" id="Shape" stroke="#9B9B9B" stroke-width="5"></path>
            <path d="M18.411,76.617 L35.312,76.617" id="Shape" stroke="#9B9B9B" stroke-width="5"></path>
        </g>
    </g>
</svg>
