<?xml version="1.0" encoding="UTF-8" standalone="no"?>
<svg width="70px" height="70px" viewBox="0 0 88 88" version="1.1" xmlns="http://www.w3.org/2000/svg" xmlns:xlink="http://www.w3.org/1999/xlink">
    <!-- Generator: Sketch 41 (35326) - http://www.bohemiancoding.com/sketch -->
    <title>Group</title>
    <desc>Created with Sketch.</desc>
    <defs></defs>
    <g id="Page-1" stroke="none" stroke-width="1" fill="none" fill-rule="evenodd">
        <g id="Group" transform="translate(0.000000, -0.362180)" fill="#9B9B9B">
            <path d="M44,0.36218 C43.55855,0.36218 43.036424,0.5678133 42.75,0.79968 L21.75,17.79968 C21.283577,18.173154 20.999655,18.764658 21,19.36218 L21,38.36218 L6,38.36218 C2.7105954,38.36218 0,41.07275 0,44.36218 L0,82.36218 C0,85.65158 2.7105954,88.36218 6,88.36218 L82,88.36218 C85.289405,88.36218 88,85.65158 88,82.36218 L88,44.36218 C88,41.07275 85.289405,38.36218 82,38.36218 L67,38.36218 L67,19.36218 C67.000345,18.764658 66.716423,18.173154 66.25,17.79968 L45.25,0.79968 C44.834114,0.4630103 44.44145,0.36218 44,0.36218 Z M44,4.92468 L63,20.33093 L63,84.36218 L53,84.36218 L53,54.36218 C52.999895,53.315011 52.047169,52.362285 51,52.36218 L37,52.36218 C36.93755,52.35928 36.874954,52.35928 36.8125,52.36218 C35.829332,52.45484 34.995742,53.374665 35,54.36218 L35,84.36218 L25,84.36218 L25,20.33093 L44,4.92468 Z M44,23.36218 C37.948553,23.36218 33,28.31074 33,34.36218 C33,40.41361 37.948558,45.36218 44,45.36218 C50.051442,45.36218 55,40.41361 55,34.36218 C55,28.31074 50.051447,23.36218 44,23.36218 Z M44,27.36218 C47.889687,27.36218 51,30.4725 51,34.36218 C51,38.25185 47.889692,41.36218 44,41.36218 C40.110308,41.36218 37,38.25185 37,34.36218 C37,30.4725 40.110313,27.36218 44,27.36218 Z M6,42.36218 L21,42.36218 L21,84.36218 L6,84.36218 C4.857408,84.36218 4,83.50478 4,82.36218 L4,44.36218 C4,43.21958 4.857408,42.36218 6,42.36218 Z M67,42.36218 L82,42.36218 C83.142591,42.36218 84,43.21958 84,44.36218 L84,82.36218 C84,83.50478 83.142591,84.36218 82,84.36218 L67,84.36218 L67,42.36218 Z M39,56.36218 L49,56.36218 L49,84.36218 L39,84.36218 L39,56.36218 Z" id="Shape"></path>
        </g>
    </g>
</svg>
