<?xml version="1.0" encoding="UTF-8" standalone="no"?>
<svg width="70px" height="70px" viewBox="0 0 394 508" version="1.1" xmlns="http://www.w3.org/2000/svg" xmlns:xlink="http://www.w3.org/1999/xlink">
    <!-- Generator: Sketch 41 (35326) - http://www.bohemiancoding.com/sketch -->
    <title>Group</title>
    <desc>Created with Sketch.</desc>
    <defs></defs>
    <g id="Page-1" stroke="none" stroke-width="1" fill="none" fill-rule="evenodd">
        <g id="Group" fill="#9B9B9B">
            <path d="M379.2,226.9 L376.6,226.9 L280,118.4 C277.3,115.4 273.5,113.7 269.5,113.7 L253.4,113.7 C246.8,49.9 192.8,0 127.3,0 C57.5,0 0.7,56.8 0.7,126.7 L0.7,493.9 C0.7,501.7 7,508 14.8,508 C22.6,508 28.9,501.7 28.9,493.9 L28.9,126.7 C28.9,72.4 73.1,28.3 127.3,28.3 C177.2,28.3 218.4,65.6 224.8,113.8 L210.3,113.8 C206.3,113.8 202.4,115.5 199.8,118.5 L103.2,226.9 L100.6,226.9 C92.8,226.9 86.5,233.2 86.5,241 C86.5,248.8 92.8,255.1 100.6,255.1 L379.2,255.1 C387,255.1 393.3,248.8 393.3,241 C393.3,233.2 387,226.9 379.2,226.9 Z M141,226.9 L216.6,142 L263.1,142 L338.7,226.9 L141,226.9 Z" id="Shape"></path>
            <path d="M140.3,277.8 C132.5,277.8 126.2,284.1 126.2,291.9 L126.2,306.5 C126.2,314.3 132.5,320.6 140.3,320.6 C148.1,320.6 154.4,314.3 154.4,306.5 L154.4,291.9 C154.4,284.1 148.1,277.8 140.3,277.8 Z" id="Shape"></path>
            <path d="M206.7,277.8 C198.9,277.8 192.6,284.1 192.6,291.9 L192.6,306.5 C192.6,314.3 198.9,320.6 206.7,320.6 C214.5,320.6 220.8,314.3 220.8,306.5 L220.8,291.9 C220.8,284.1 214.5,277.8 206.7,277.8 Z" id="Shape"></path>
            <path d="M273.1,277.8 C265.3,277.8 259,284.1 259,291.9 L259,306.5 C259,314.3 265.3,320.6 273.1,320.6 C280.9,320.6 287.2,314.3 287.2,306.5 L287.2,291.9 C287.2,284.1 280.9,277.8 273.1,277.8 Z" id="Shape"></path>
            <path d="M339.5,277.8 C331.7,277.8 325.4,284.1 325.4,291.9 L325.4,306.5 C325.4,314.3 331.7,320.6 339.5,320.6 C347.3,320.6 353.6,314.3 353.6,306.5 L353.6,291.9 C353.6,284.1 347.3,277.8 339.5,277.8 Z" id="Shape"></path>
            <path d="M173.5,350 C165.7,350 159.4,356.3 159.4,364.1 L159.4,378.7 C159.4,386.5 165.7,392.8 173.5,392.8 C181.3,392.8 187.6,386.5 187.6,378.7 L187.6,364.1 C187.6,356.4 181.3,350 173.5,350 Z" id="Shape"></path>
            <path d="M239.9,350 C232.1,350 225.8,356.3 225.8,364.1 L225.8,378.7 C225.8,386.5 232.1,392.8 239.9,392.8 C247.7,392.8 254,386.5 254,378.7 L254,364.1 C254,356.4 247.7,350 239.9,350 Z" id="Shape"></path>
            <path d="M306.3,350 C298.5,350 292.2,356.3 292.2,364.1 L292.2,378.7 C292.2,386.5 298.5,392.8 306.3,392.8 C314.1,392.8 320.4,386.5 320.4,378.7 L320.4,364.1 C320.4,356.4 314.1,350 306.3,350 Z" id="Shape"></path>
        </g>
    </g>
</svg>
