<?xml version="1.0" encoding="UTF-8" standalone="no"?>
<svg width="62px" height="60px" viewBox="0 0 62 60" version="1.1" xmlns="http://www.w3.org/2000/svg" xmlns:xlink="http://www.w3.org/1999/xlink">
    <!-- Generator: Sketch 41 (35326) - http://www.bohemiancoding.com/sketch -->
    <title>snow</title>
    <desc>Created with Sketch.</desc>
    <defs></defs>
    <g id="Page-1" stroke="none" stroke-width="1" fill="none" fill-rule="evenodd">
        <g id="snow" fill="#9B9B9B">
            <g id="Page-1">
                <g id="snow">
                    <g id="Group">
                        <path d="M27.185,48.095 L27.179,48.095 C27.12,47.618 26.617,47.64 26.307,47.632 C25.974,47.624 25.641,47.617 25.277,47.609 L24.552,47.572 C24.552,47.572 25.788,46.423 25.877,46.345 C26.018,46.221 25.899,46.33 26.028,46.207 C26.275,45.972 26.294,45.749 26.083,45.542 C25.928,45.389 25.72,45.362 25.512,45.468 C25.461,45.494 25.41,45.529 25.362,45.57 C25.05,45.837 23.882,46.901 23.466,47.25 C23.401,47.305 23.327,47.354 23.244,47.396 C23.123,47.457 22.994,47.5 22.868,47.52 C22.84,47.524 22.362,47.528 21.922,47.53 C21.786,47.081 21.563,46.669 21.272,46.316 C21.613,45.979 22.046,45.552 22.074,45.532 C22.175,45.461 22.292,45.402 22.416,45.362 C22.504,45.333 22.592,45.315 22.676,45.308 C23.217,45.261 24.894,45.19 25.303,45.158 C25.366,45.153 25.426,45.142 25.481,45.124 C25.703,45.052 25.831,44.885 25.833,44.667 C25.836,44.371 25.665,44.227 25.324,44.235 C25.146,44.239 25.209,44.23 25.021,44.242 C24.903,44.249 23.217,44.311 23.217,44.311 L23.704,43.773 C23.956,43.509 24.186,43.269 24.416,43.028 C24.629,42.803 25.001,42.463 24.705,42.084 L24.709,42.08 C24.702,42.074 24.696,42.07 24.689,42.064 C24.683,42.057 24.679,42.051 24.673,42.044 L24.669,42.048 C24.29,41.753 23.95,42.124 23.725,42.337 C23.484,42.567 23.244,42.797 22.98,43.049 L22.442,43.536 C22.442,43.536 22.504,41.85 22.511,41.732 C22.523,41.544 22.516,41.706 22.52,41.528 C22.529,41.187 22.384,41.016 22.088,41.019 C21.87,41.021 21.704,41.149 21.631,41.37 C21.613,41.425 21.602,41.485 21.597,41.548 C21.565,41.957 21.492,43.535 21.444,44.076 C21.437,44.161 21.419,44.248 21.39,44.336 C21.348,44.465 21.286,44.587 21.212,44.69 C21.192,44.717 20.718,45.197 20.376,45.542 C20.029,45.332 19.643,45.182 19.232,45.102 C19.234,44.611 19.239,43.883 19.246,43.845 C19.267,43.723 19.309,43.599 19.368,43.483 C19.41,43.4 19.459,43.325 19.514,43.261 C19.863,42.845 20.998,41.609 21.265,41.297 C21.306,41.249 21.34,41.198 21.367,41.147 C21.473,40.939 21.445,40.731 21.293,40.576 C21.086,40.365 20.863,40.383 20.628,40.631 C20.505,40.76 20.543,40.709 20.419,40.85 C20.341,40.939 19.192,42.175 19.192,42.175 L19.155,41.45 C19.147,41.085 19.14,40.753 19.132,40.42 C19.124,40.11 19.146,39.607 18.669,39.548 L18.669,39.54 C18.66,39.54 18.652,39.542 18.644,39.543 C18.635,39.542 18.627,39.541 18.619,39.54 L18.619,39.546 C18.142,39.605 18.164,40.108 18.156,40.418 C18.148,40.751 18.141,41.084 18.133,41.448 L18.096,42.173 C18.096,42.173 16.947,40.937 16.869,40.848 C16.745,40.707 16.854,40.826 16.731,40.697 C16.496,40.45 16.273,40.431 16.066,40.642 C15.913,40.797 15.886,41.005 15.992,41.213 C16.018,41.264 16.053,41.315 16.094,41.363 C16.361,41.675 17.425,42.843 17.774,43.259 C17.829,43.324 17.878,43.398 17.92,43.481 C17.981,43.601 18.024,43.731 18.044,43.857 C18.049,43.891 18.053,44.588 18.055,45.075 C17.629,45.138 17.229,45.279 16.867,45.481 C16.526,45.137 16.076,44.68 16.055,44.651 C15.984,44.55 15.925,44.433 15.885,44.309 C15.856,44.221 15.838,44.133 15.831,44.049 C15.784,43.508 15.713,41.831 15.681,41.422 C15.676,41.359 15.665,41.299 15.647,41.244 C15.575,41.022 15.408,40.894 15.19,40.892 C14.894,40.889 14.75,41.06 14.758,41.401 C14.762,41.579 14.753,41.516 14.765,41.704 C14.772,41.822 14.834,43.508 14.834,43.508 L14.296,43.021 C14.032,42.769 13.792,42.539 13.551,42.309 C13.326,42.096 12.986,41.724 12.607,42.02 L12.603,42.016 C12.597,42.023 12.593,42.029 12.587,42.036 C12.58,42.042 12.574,42.046 12.567,42.052 L12.571,42.056 C12.276,42.435 12.647,42.775 12.86,43 C13.09,43.241 13.32,43.481 13.572,43.745 L14.059,44.283 C14.059,44.283 12.373,44.221 12.255,44.214 C12.067,44.202 12.229,44.209 12.051,44.205 C11.71,44.196 11.539,44.341 11.542,44.637 C11.544,44.855 11.672,45.021 11.894,45.094 C11.949,45.112 12.009,45.123 12.072,45.128 C12.481,45.16 14.059,45.233 14.6,45.281 C14.685,45.288 14.772,45.306 14.86,45.335 C14.989,45.377 15.111,45.439 15.214,45.513 C15.238,45.531 15.618,45.905 15.944,46.228 C15.625,46.591 15.379,47.019 15.231,47.491 C14.817,47.488 14.398,47.485 14.37,47.48 C14.248,47.459 14.124,47.417 14.008,47.358 C13.925,47.316 13.85,47.267 13.786,47.212 C13.37,46.863 12.134,45.728 11.822,45.461 C11.774,45.42 11.723,45.386 11.672,45.359 C11.464,45.253 11.256,45.281 11.101,45.433 C10.89,45.64 10.908,45.863 11.156,46.098 C11.285,46.221 11.234,46.183 11.375,46.307 C11.464,46.385 12.7,47.534 12.7,47.534 L11.975,47.571 C11.61,47.579 11.278,47.586 10.945,47.594 C10.635,47.602 10.132,47.58 10.073,48.057 L10.067,48.057 C10.067,48.066 10.069,48.074 10.07,48.082 C10.069,48.091 10.068,48.099 10.067,48.107 L10.073,48.107 C10.132,48.584 10.635,48.562 10.945,48.57 C11.278,48.578 11.611,48.585 11.975,48.593 L12.7,48.63 C12.7,48.63 11.464,49.779 11.375,49.857 C11.234,49.981 11.353,49.872 11.224,49.995 C10.977,50.23 10.958,50.453 11.169,50.66 C11.324,50.813 11.532,50.84 11.74,50.734 C11.791,50.708 11.842,50.673 11.89,50.632 C12.202,50.365 13.37,49.301 13.786,48.952 C13.851,48.897 13.925,48.848 14.008,48.806 C14.129,48.745 14.258,48.702 14.384,48.682 C14.406,48.678 14.722,48.676 15.074,48.673 C15.097,49.267 15.269,49.824 15.553,50.307 C15.355,50.502 15.195,50.658 15.178,50.67 C15.077,50.741 14.96,50.8 14.836,50.84 C14.748,50.869 14.66,50.887 14.576,50.894 C14.035,50.941 12.358,51.012 11.949,51.044 C11.886,51.049 11.826,51.06 11.771,51.078 C11.549,51.15 11.421,51.317 11.419,51.535 C11.416,51.831 11.587,51.975 11.928,51.967 C12.106,51.963 12.043,51.972 12.231,51.96 C12.349,51.953 14.035,51.891 14.035,51.891 L13.548,52.429 C13.296,52.693 13.066,52.933 12.836,53.174 C12.623,53.399 12.251,53.739 12.547,54.118 L12.543,54.122 C12.55,54.128 12.556,54.132 12.563,54.138 C12.569,54.145 12.573,54.151 12.579,54.158 L12.583,54.154 C12.962,54.449 13.302,54.078 13.527,53.865 C13.768,53.635 14.008,53.405 14.272,53.153 L14.81,52.666 C14.81,52.666 14.748,54.352 14.741,54.47 C14.729,54.658 14.736,54.496 14.732,54.674 C14.723,55.015 14.868,55.186 15.164,55.183 C15.382,55.181 15.548,55.053 15.621,54.832 C15.639,54.777 15.65,54.717 15.655,54.654 C15.687,54.245 15.76,52.667 15.808,52.126 C15.815,52.041 15.833,51.954 15.862,51.866 C15.904,51.737 15.966,51.615 16.04,51.512 C16.05,51.499 16.167,51.378 16.324,51.218 C16.798,51.616 17.377,51.891 18.014,51.993 C18.012,52.193 18.009,52.339 18.007,52.356 C17.986,52.478 17.944,52.602 17.885,52.718 C17.843,52.801 17.794,52.876 17.739,52.94 C17.39,53.356 16.255,54.592 15.988,54.904 C15.947,54.952 15.913,55.003 15.886,55.054 C15.78,55.262 15.808,55.47 15.96,55.625 C16.167,55.836 16.39,55.818 16.625,55.57 C16.748,55.441 16.71,55.492 16.834,55.351 C16.912,55.262 18.061,54.026 18.061,54.026 L18.098,54.751 C18.106,55.116 18.113,55.448 18.121,55.781 C18.129,56.091 18.107,56.594 18.584,56.653 L18.584,56.659 C18.593,56.659 18.601,56.657 18.609,56.656 C18.618,56.657 18.626,56.658 18.634,56.659 L18.634,56.66 C19.111,56.601 19.089,56.098 19.097,55.788 C19.105,55.455 19.112,55.122 19.12,54.758 L19.157,54.033 C19.157,54.033 20.306,55.269 20.384,55.358 C20.508,55.499 20.399,55.38 20.522,55.509 C20.757,55.756 20.98,55.775 21.187,55.564 C21.34,55.409 21.367,55.201 21.261,54.993 C21.235,54.942 21.2,54.891 21.159,54.843 C20.892,54.531 19.828,53.363 19.479,52.947 C19.424,52.882 19.375,52.808 19.333,52.725 C19.272,52.604 19.229,52.475 19.209,52.349 C19.207,52.334 19.205,52.188 19.203,51.987 C19.825,51.873 20.39,51.594 20.852,51.197 C21.039,51.387 21.186,51.538 21.197,51.554 C21.268,51.655 21.327,51.772 21.367,51.896 C21.396,51.984 21.414,52.072 21.421,52.156 C21.468,52.697 21.539,54.374 21.571,54.783 C21.576,54.846 21.587,54.906 21.605,54.961 C21.677,55.183 21.844,55.311 22.062,55.312 C22.358,55.315 22.502,55.144 22.494,54.803 C22.49,54.625 22.499,54.688 22.487,54.5 C22.48,54.382 22.418,52.696 22.418,52.696 L22.956,53.183 C23.22,53.435 23.46,53.665 23.701,53.895 C23.926,54.108 24.266,54.48 24.645,54.184 L24.649,54.188 C24.655,54.181 24.659,54.175 24.665,54.168 C24.672,54.162 24.678,54.158 24.685,54.152 L24.681,54.148 C24.976,53.769 24.605,53.429 24.392,53.204 C24.162,52.963 23.932,52.723 23.68,52.459 L23.193,51.921 C23.193,51.921 24.879,51.983 24.997,51.99 C25.185,52.002 25.023,51.995 25.201,51.999 C25.542,52.008 25.713,51.863 25.71,51.567 C25.708,51.349 25.58,51.183 25.358,51.11 C25.303,51.092 25.243,51.081 25.18,51.076 C24.771,51.044 23.193,50.971 22.652,50.923 C22.567,50.916 22.48,50.898 22.392,50.869 C22.263,50.827 22.141,50.765 22.038,50.691 C22.021,50.679 21.833,50.495 21.611,50.275 C21.877,49.81 22.041,49.279 22.068,48.713 C22.467,48.716 22.855,48.719 22.882,48.724 C23.004,48.745 23.128,48.787 23.244,48.846 C23.327,48.888 23.402,48.937 23.466,48.992 C23.882,49.341 25.118,50.476 25.43,50.743 C25.478,50.784 25.529,50.818 25.58,50.845 C25.788,50.951 25.996,50.923 26.151,50.771 C26.362,50.564 26.344,50.341 26.096,50.106 C25.967,49.983 26.018,50.021 25.877,49.897 C25.788,49.819 24.552,48.67 24.552,48.67 L25.277,48.633 C25.642,48.625 25.974,48.618 26.307,48.61 C26.617,48.602 27.12,48.624 27.179,48.147 L27.185,48.147 C27.185,48.138 27.183,48.13 27.182,48.122 C27.183,48.112 27.184,48.104 27.185,48.095 Z M18.567,50.511 C17.481,50.511 16.597,49.627 16.597,48.541 C16.597,47.454 17.481,46.571 18.567,46.571 C19.653,46.571 20.537,47.455 20.537,48.541 C20.538,49.627 19.654,50.511 18.567,50.511 Z" id="Shape"></path>
                        <path d="M52.237,50.662 L52.231,50.662 C52.172,50.185 51.669,50.207 51.359,50.199 C51.026,50.191 50.693,50.184 50.329,50.176 L49.604,50.139 C49.604,50.139 50.84,48.99 50.929,48.912 C51.07,48.788 50.951,48.897 51.08,48.774 C51.327,48.539 51.346,48.316 51.135,48.109 C50.98,47.956 50.772,47.929 50.564,48.035 C50.513,48.061 50.462,48.096 50.414,48.137 C50.102,48.404 48.934,49.468 48.518,49.817 C48.453,49.872 48.379,49.921 48.296,49.963 C48.175,50.024 48.046,50.067 47.92,50.087 C47.892,50.091 47.414,50.095 46.974,50.097 C46.838,49.648 46.615,49.236 46.324,48.883 C46.665,48.546 47.098,48.119 47.126,48.099 C47.227,48.028 47.344,47.969 47.468,47.929 C47.556,47.9 47.644,47.882 47.728,47.875 C48.269,47.828 49.946,47.757 50.355,47.725 C50.418,47.72 50.478,47.709 50.533,47.691 C50.755,47.619 50.883,47.452 50.885,47.234 C50.888,46.938 50.717,46.794 50.376,46.802 C50.198,46.806 50.261,46.797 50.073,46.809 C49.955,46.816 48.269,46.878 48.269,46.878 L48.756,46.34 C49.008,46.076 49.238,45.836 49.468,45.595 C49.681,45.37 50.053,45.03 49.757,44.651 L49.761,44.647 C49.754,44.641 49.748,44.637 49.741,44.631 C49.735,44.624 49.731,44.618 49.725,44.611 L49.721,44.615 C49.342,44.32 49.002,44.691 48.777,44.904 C48.536,45.134 48.296,45.364 48.032,45.616 L47.494,46.103 C47.494,46.103 47.556,44.417 47.563,44.299 C47.575,44.111 47.568,44.273 47.572,44.095 C47.581,43.754 47.436,43.583 47.14,43.586 C46.922,43.588 46.756,43.716 46.683,43.937 C46.665,43.992 46.654,44.052 46.649,44.115 C46.617,44.524 46.544,46.102 46.496,46.643 C46.489,46.728 46.471,46.815 46.442,46.903 C46.4,47.032 46.338,47.154 46.264,47.257 C46.244,47.284 45.77,47.764 45.428,48.109 C45.081,47.899 44.695,47.749 44.284,47.669 C44.286,47.178 44.291,46.45 44.298,46.412 C44.319,46.29 44.361,46.166 44.42,46.05 C44.462,45.967 44.511,45.892 44.566,45.828 C44.915,45.412 46.05,44.176 46.317,43.864 C46.358,43.816 46.392,43.765 46.419,43.714 C46.525,43.506 46.497,43.298 46.345,43.143 C46.138,42.932 45.915,42.95 45.68,43.198 C45.557,43.327 45.595,43.276 45.471,43.417 C45.393,43.506 44.244,44.742 44.244,44.742 L44.207,44.017 C44.199,43.652 44.192,43.32 44.184,42.987 C44.176,42.677 44.198,42.174 43.721,42.115 L43.721,42.109 C43.712,42.109 43.704,42.111 43.696,42.112 C43.687,42.111 43.679,42.109 43.671,42.109 L43.671,42.115 C43.194,42.174 43.216,42.677 43.208,42.987 C43.2,43.32 43.193,43.653 43.185,44.017 L43.148,44.742 C43.148,44.742 41.999,43.506 41.921,43.417 C41.797,43.276 41.906,43.395 41.783,43.266 C41.548,43.019 41.325,43 41.118,43.211 C40.965,43.366 40.938,43.574 41.044,43.782 C41.07,43.833 41.105,43.884 41.146,43.932 C41.413,44.244 42.477,45.412 42.826,45.828 C42.881,45.893 42.93,45.967 42.972,46.05 C43.033,46.171 43.076,46.3 43.096,46.426 C43.101,46.46 43.105,47.157 43.107,47.644 C42.681,47.707 42.281,47.848 41.919,48.05 C41.578,47.706 41.128,47.249 41.107,47.22 C41.036,47.119 40.977,47.002 40.937,46.878 C40.908,46.79 40.89,46.702 40.883,46.618 C40.836,46.077 40.765,44.4 40.733,43.991 C40.728,43.928 40.717,43.868 40.699,43.813 C40.627,43.591 40.46,43.463 40.242,43.461 C39.946,43.458 39.802,43.629 39.81,43.97 C39.814,44.148 39.805,44.085 39.817,44.273 C39.824,44.391 39.886,46.077 39.886,46.077 L39.348,45.59 C39.084,45.338 38.844,45.108 38.603,44.878 C38.378,44.665 38.038,44.293 37.659,44.589 L37.655,44.585 C37.649,44.592 37.645,44.598 37.639,44.605 C37.632,44.611 37.626,44.615 37.619,44.621 L37.623,44.625 C37.328,45.004 37.699,45.344 37.912,45.569 C38.142,45.81 38.372,46.05 38.624,46.314 L39.111,46.852 C39.111,46.852 37.425,46.79 37.307,46.783 C37.119,46.771 37.281,46.778 37.103,46.774 C36.762,46.765 36.591,46.91 36.594,47.206 C36.596,47.424 36.724,47.59 36.946,47.663 C37.001,47.681 37.061,47.692 37.124,47.697 C37.533,47.729 39.111,47.802 39.652,47.85 C39.737,47.857 39.824,47.875 39.912,47.904 C40.041,47.946 40.163,48.008 40.266,48.082 C40.29,48.1 40.67,48.474 40.996,48.797 C40.677,49.16 40.431,49.588 40.283,50.06 C39.869,50.057 39.45,50.054 39.422,50.049 C39.3,50.028 39.176,49.986 39.06,49.927 C38.977,49.885 38.902,49.836 38.838,49.781 C38.422,49.432 37.186,48.297 36.874,48.03 C36.826,47.989 36.775,47.955 36.724,47.928 C36.516,47.822 36.308,47.85 36.153,48.002 C35.942,48.209 35.96,48.432 36.208,48.667 C36.337,48.79 36.286,48.752 36.427,48.876 C36.516,48.954 37.752,50.103 37.752,50.103 L37.027,50.14 C36.662,50.148 36.33,50.155 35.997,50.163 C35.687,50.171 35.184,50.149 35.125,50.626 L35.119,50.626 C35.119,50.635 35.121,50.643 35.122,50.651 C35.121,50.66 35.12,50.668 35.119,50.676 L35.125,50.676 C35.184,51.153 35.687,51.131 35.997,51.139 C36.33,51.147 36.663,51.154 37.027,51.162 L37.752,51.199 C37.752,51.199 36.516,52.348 36.427,52.426 C36.286,52.55 36.405,52.441 36.276,52.564 C36.029,52.799 36.01,53.022 36.221,53.229 C36.376,53.382 36.584,53.409 36.792,53.303 C36.843,53.277 36.894,53.242 36.942,53.201 C37.254,52.934 38.422,51.87 38.838,51.521 C38.903,51.466 38.977,51.417 39.06,51.375 C39.181,51.314 39.31,51.271 39.436,51.251 C39.458,51.247 39.774,51.245 40.126,51.242 C40.149,51.836 40.321,52.393 40.605,52.876 C40.407,53.071 40.247,53.227 40.23,53.239 C40.129,53.31 40.012,53.369 39.888,53.409 C39.8,53.438 39.712,53.456 39.628,53.463 C39.087,53.51 37.41,53.581 37.001,53.613 C36.938,53.618 36.878,53.629 36.823,53.647 C36.601,53.719 36.473,53.886 36.471,54.104 C36.468,54.4 36.639,54.544 36.98,54.536 C37.158,54.532 37.095,54.541 37.283,54.529 C37.401,54.522 39.087,54.46 39.087,54.46 L38.6,54.998 C38.348,55.262 38.118,55.502 37.888,55.743 C37.675,55.968 37.303,56.308 37.599,56.687 L37.595,56.691 C37.602,56.697 37.608,56.701 37.615,56.707 C37.621,56.714 37.625,56.72 37.631,56.727 L37.635,56.723 C38.014,57.018 38.354,56.647 38.579,56.434 C38.82,56.204 39.06,55.974 39.324,55.722 L39.862,55.235 C39.862,55.235 39.8,56.921 39.793,57.039 C39.781,57.227 39.788,57.065 39.784,57.243 C39.775,57.584 39.92,57.755 40.216,57.752 C40.434,57.75 40.6,57.622 40.673,57.401 C40.691,57.346 40.702,57.286 40.707,57.223 C40.739,56.814 40.812,55.236 40.86,54.695 C40.867,54.61 40.885,54.523 40.914,54.435 C40.956,54.306 41.018,54.184 41.092,54.081 C41.102,54.068 41.219,53.947 41.376,53.787 C41.85,54.185 42.429,54.46 43.066,54.562 C43.064,54.762 43.061,54.908 43.059,54.925 C43.038,55.047 42.996,55.171 42.937,55.287 C42.895,55.37 42.846,55.445 42.791,55.509 C42.442,55.925 41.307,57.161 41.04,57.473 C40.999,57.521 40.965,57.572 40.938,57.623 C40.832,57.831 40.86,58.039 41.012,58.194 C41.219,58.405 41.442,58.387 41.677,58.139 C41.8,58.01 41.762,58.061 41.886,57.92 C41.964,57.831 43.113,56.595 43.113,56.595 L43.15,57.32 C43.158,57.685 43.165,58.017 43.173,58.35 C43.181,58.66 43.159,59.163 43.636,59.222 L43.636,59.228 C43.645,59.228 43.653,59.226 43.661,59.225 C43.67,59.226 43.678,59.228 43.686,59.228 L43.686,59.222 C44.163,59.163 44.141,58.66 44.149,58.35 C44.157,58.017 44.164,57.684 44.172,57.32 L44.209,56.595 C44.209,56.595 45.358,57.831 45.436,57.92 C45.56,58.061 45.451,57.942 45.574,58.071 C45.809,58.318 46.032,58.337 46.239,58.126 C46.392,57.971 46.419,57.763 46.313,57.555 C46.287,57.504 46.252,57.453 46.211,57.405 C45.944,57.093 44.88,55.925 44.531,55.509 C44.476,55.444 44.427,55.37 44.385,55.287 C44.324,55.166 44.281,55.037 44.261,54.911 C44.259,54.896 44.257,54.75 44.255,54.549 C44.877,54.435 45.442,54.156 45.904,53.759 C46.091,53.949 46.238,54.1 46.249,54.116 C46.32,54.217 46.379,54.334 46.419,54.458 C46.448,54.546 46.466,54.634 46.473,54.718 C46.52,55.259 46.591,56.936 46.623,57.345 C46.628,57.408 46.639,57.468 46.657,57.523 C46.729,57.745 46.896,57.873 47.114,57.874 C47.41,57.877 47.554,57.706 47.546,57.365 C47.542,57.187 47.551,57.25 47.539,57.062 C47.532,56.944 47.47,55.258 47.47,55.258 L48.008,55.745 C48.272,55.997 48.512,56.227 48.753,56.457 C48.978,56.67 49.318,57.042 49.697,56.746 L49.701,56.75 C49.707,56.743 49.711,56.737 49.717,56.73 C49.724,56.724 49.73,56.72 49.737,56.714 L49.733,56.71 C50.028,56.331 49.657,55.991 49.444,55.766 C49.214,55.525 48.984,55.285 48.732,55.021 L48.245,54.483 C48.245,54.483 49.931,54.545 50.049,54.552 C50.237,54.564 50.075,54.557 50.253,54.561 C50.594,54.57 50.765,54.425 50.762,54.129 C50.76,53.911 50.632,53.745 50.41,53.672 C50.355,53.654 50.295,53.643 50.232,53.638 C49.823,53.606 48.245,53.533 47.704,53.485 C47.619,53.478 47.532,53.46 47.444,53.431 C47.315,53.389 47.193,53.327 47.09,53.253 C47.073,53.241 46.885,53.057 46.663,52.837 C46.929,52.372 47.093,51.841 47.12,51.275 C47.519,51.278 47.907,51.281 47.934,51.286 C48.056,51.307 48.18,51.349 48.296,51.408 C48.379,51.45 48.454,51.499 48.518,51.554 C48.934,51.903 50.17,53.038 50.482,53.305 C50.53,53.346 50.581,53.38 50.632,53.407 C50.84,53.513 51.048,53.485 51.203,53.333 C51.414,53.126 51.396,52.903 51.148,52.668 C51.019,52.545 51.07,52.583 50.929,52.459 C50.84,52.381 49.604,51.232 49.604,51.232 L50.329,51.195 C50.694,51.187 51.026,51.18 51.359,51.172 C51.669,51.164 52.172,51.186 52.231,50.709 L52.237,50.709 C52.237,50.7 52.235,50.692 52.234,50.684 C52.235,50.679 52.236,50.671 52.237,50.662 Z M43.619,53.078 C42.533,53.078 41.649,52.194 41.649,51.108 C41.649,50.021 42.533,49.138 43.619,49.138 C44.705,49.138 45.589,50.022 45.589,51.108 C45.59,52.194 44.706,53.078 43.619,53.078 Z" id="Shape"></path>
                        <path d="M41.719,29.733 L41.713,29.733 C41.654,29.256 41.151,29.278 40.841,29.27 C40.508,29.262 40.175,29.255 39.811,29.247 L39.086,29.21 C39.086,29.21 40.322,28.061 40.411,27.983 C40.552,27.859 40.433,27.968 40.562,27.845 C40.809,27.61 40.828,27.387 40.617,27.18 C40.462,27.027 40.254,27 40.046,27.106 C39.995,27.132 39.944,27.167 39.896,27.208 C39.584,27.475 38.416,28.539 38,28.888 C37.935,28.943 37.861,28.992 37.778,29.034 C37.657,29.095 37.528,29.138 37.402,29.158 C37.374,29.162 36.896,29.166 36.456,29.168 C36.32,28.719 36.097,28.307 35.806,27.954 C36.147,27.617 36.58,27.19 36.608,27.17 C36.709,27.099 36.826,27.04 36.95,27 C37.038,26.971 37.126,26.953 37.21,26.946 C37.751,26.899 39.428,26.828 39.837,26.796 C39.9,26.791 39.96,26.78 40.015,26.762 C40.237,26.69 40.365,26.523 40.367,26.305 C40.37,26.009 40.199,25.865 39.858,25.873 C39.68,25.877 39.743,25.868 39.555,25.88 C39.437,25.887 37.751,25.949 37.751,25.949 L38.238,25.411 C38.49,25.147 38.72,24.907 38.95,24.666 C39.163,24.441 39.535,24.101 39.239,23.722 L39.243,23.718 C39.236,23.712 39.23,23.708 39.223,23.702 C39.217,23.695 39.213,23.689 39.207,23.682 L39.203,23.686 C38.824,23.391 38.484,23.762 38.259,23.975 C38.018,24.205 37.778,24.435 37.514,24.687 L36.976,25.174 C36.976,25.174 37.038,23.488 37.045,23.37 C37.057,23.182 37.05,23.344 37.054,23.166 C37.063,22.825 36.918,22.654 36.622,22.657 C36.404,22.659 36.238,22.787 36.165,23.008 C36.147,23.063 36.136,23.123 36.131,23.186 C36.099,23.595 36.026,25.173 35.978,25.714 C35.971,25.799 35.953,25.886 35.924,25.974 C35.882,26.103 35.82,26.225 35.746,26.328 C35.726,26.355 35.252,26.835 34.91,27.18 C34.563,26.97 34.177,26.82 33.766,26.74 C33.768,26.249 33.773,25.521 33.78,25.483 C33.801,25.361 33.843,25.237 33.902,25.121 C33.944,25.038 33.993,24.963 34.048,24.899 C34.397,24.483 35.532,23.247 35.799,22.935 C35.84,22.887 35.874,22.836 35.901,22.785 C36.007,22.577 35.979,22.369 35.827,22.214 C35.62,22.003 35.397,22.021 35.162,22.269 C35.039,22.398 35.077,22.347 34.953,22.488 C34.875,22.577 33.726,23.813 33.726,23.813 L33.689,23.088 C33.681,22.723 33.674,22.391 33.666,22.058 C33.658,21.748 33.68,21.245 33.203,21.186 L33.203,21.18 C33.194,21.18 33.186,21.182 33.178,21.183 C33.169,21.182 33.161,21.18 33.153,21.18 L33.153,21.186 C32.676,21.245 32.698,21.748 32.69,22.058 C32.682,22.391 32.675,22.724 32.667,23.088 L32.63,23.813 C32.63,23.813 31.481,22.577 31.403,22.488 C31.279,22.347 31.388,22.466 31.265,22.337 C31.03,22.09 30.807,22.071 30.6,22.282 C30.447,22.437 30.42,22.645 30.526,22.853 C30.552,22.904 30.587,22.955 30.628,23.003 C30.895,23.315 31.959,24.483 32.308,24.899 C32.363,24.964 32.412,25.038 32.454,25.121 C32.515,25.242 32.558,25.371 32.578,25.497 C32.583,25.531 32.587,26.228 32.589,26.715 C32.163,26.778 31.763,26.919 31.401,27.121 C31.06,26.777 30.61,26.32 30.589,26.291 C30.518,26.19 30.459,26.073 30.419,25.949 C30.39,25.861 30.372,25.773 30.365,25.689 C30.318,25.148 30.247,23.471 30.215,23.062 C30.21,22.999 30.199,22.939 30.181,22.884 C30.109,22.662 29.942,22.534 29.724,22.532 C29.428,22.529 29.284,22.7 29.292,23.041 C29.296,23.219 29.287,23.156 29.299,23.344 C29.306,23.462 29.368,25.148 29.368,25.148 L28.83,24.661 C28.566,24.409 28.326,24.179 28.085,23.949 C27.86,23.736 27.52,23.364 27.141,23.66 L27.137,23.656 C27.131,23.663 27.127,23.669 27.121,23.676 C27.114,23.682 27.108,23.686 27.101,23.692 L27.105,23.696 C26.81,24.075 27.181,24.415 27.394,24.64 C27.624,24.881 27.854,25.121 28.106,25.385 L28.593,25.923 C28.593,25.923 26.907,25.861 26.789,25.854 C26.601,25.842 26.763,25.849 26.585,25.845 C26.244,25.836 26.073,25.981 26.076,26.277 C26.078,26.495 26.206,26.661 26.428,26.734 C26.483,26.752 26.543,26.763 26.606,26.768 C27.015,26.8 28.593,26.873 29.134,26.921 C29.219,26.928 29.306,26.946 29.394,26.975 C29.523,27.017 29.645,27.079 29.748,27.153 C29.772,27.171 30.152,27.545 30.478,27.868 C30.159,28.231 29.913,28.659 29.765,29.131 C29.351,29.128 28.932,29.125 28.904,29.12 C28.782,29.099 28.658,29.057 28.542,28.998 C28.459,28.956 28.384,28.907 28.32,28.852 C27.904,28.503 26.668,27.368 26.356,27.101 C26.308,27.06 26.257,27.026 26.206,26.999 C25.998,26.893 25.79,26.921 25.635,27.073 C25.424,27.28 25.442,27.503 25.69,27.738 C25.819,27.861 25.768,27.823 25.909,27.947 C25.998,28.025 27.234,29.174 27.234,29.174 L26.509,29.211 C26.144,29.219 25.812,29.226 25.479,29.234 C25.169,29.242 24.666,29.22 24.607,29.697 L24.601,29.697 C24.601,29.706 24.603,29.714 24.604,29.722 C24.603,29.731 24.601,29.739 24.601,29.747 L24.607,29.747 C24.666,30.224 25.169,30.202 25.479,30.21 C25.812,30.218 26.145,30.225 26.509,30.233 L27.234,30.27 C27.234,30.27 25.998,31.419 25.909,31.497 C25.768,31.621 25.887,31.512 25.758,31.635 C25.511,31.87 25.492,32.093 25.703,32.3 C25.858,32.453 26.066,32.48 26.274,32.374 C26.325,32.348 26.376,32.313 26.424,32.272 C26.736,32.005 27.904,30.941 28.32,30.592 C28.385,30.537 28.459,30.488 28.542,30.446 C28.663,30.385 28.792,30.342 28.918,30.322 C28.94,30.318 29.256,30.316 29.608,30.313 C29.631,30.907 29.803,31.464 30.087,31.947 C29.889,32.142 29.729,32.298 29.712,32.31 C29.611,32.381 29.494,32.44 29.37,32.48 C29.282,32.509 29.194,32.527 29.11,32.534 C28.569,32.581 26.892,32.652 26.483,32.684 C26.42,32.689 26.36,32.7 26.305,32.718 C26.083,32.79 25.955,32.957 25.953,33.175 C25.95,33.471 26.121,33.615 26.462,33.607 C26.64,33.603 26.577,33.612 26.765,33.6 C26.883,33.593 28.569,33.531 28.569,33.531 L28.082,34.069 C27.83,34.333 27.6,34.573 27.37,34.814 C27.157,35.039 26.785,35.379 27.081,35.758 L27.077,35.762 C27.084,35.768 27.09,35.772 27.097,35.778 C27.103,35.785 27.107,35.791 27.113,35.798 L27.117,35.794 C27.496,36.089 27.836,35.718 28.061,35.505 C28.302,35.275 28.542,35.045 28.806,34.793 L29.344,34.306 C29.344,34.306 29.282,35.992 29.275,36.11 C29.263,36.298 29.27,36.136 29.266,36.314 C29.257,36.655 29.402,36.826 29.698,36.823 C29.916,36.821 30.082,36.693 30.155,36.472 C30.173,36.417 30.184,36.357 30.189,36.294 C30.221,35.885 30.294,34.307 30.342,33.766 C30.349,33.681 30.367,33.594 30.396,33.506 C30.438,33.377 30.5,33.255 30.574,33.152 C30.584,33.139 30.701,33.018 30.858,32.858 C31.332,33.256 31.911,33.531 32.548,33.633 C32.546,33.833 32.543,33.979 32.541,33.996 C32.52,34.118 32.478,34.242 32.419,34.358 C32.377,34.441 32.328,34.516 32.273,34.58 C31.924,34.996 30.789,36.232 30.522,36.544 C30.481,36.592 30.447,36.643 30.42,36.694 C30.314,36.902 30.342,37.11 30.494,37.265 C30.701,37.476 30.924,37.458 31.159,37.21 C31.282,37.081 31.244,37.132 31.368,36.991 C31.446,36.902 32.595,35.666 32.595,35.666 L32.632,36.391 C32.64,36.756 32.647,37.088 32.655,37.421 C32.663,37.731 32.641,38.234 33.118,38.293 L33.118,38.299 C33.127,38.299 33.135,38.297 33.143,38.296 C33.152,38.297 33.16,38.298 33.168,38.299 L33.168,38.293 C33.645,38.234 33.623,37.731 33.631,37.421 C33.639,37.088 33.646,36.755 33.654,36.391 L33.691,35.666 C33.691,35.666 34.84,36.902 34.918,36.991 C35.042,37.132 34.933,37.013 35.056,37.142 C35.291,37.389 35.514,37.408 35.721,37.197 C35.874,37.042 35.901,36.834 35.795,36.626 C35.769,36.575 35.734,36.524 35.693,36.476 C35.426,36.164 34.362,34.996 34.013,34.58 C33.958,34.515 33.909,34.441 33.867,34.358 C33.806,34.237 33.763,34.108 33.743,33.982 C33.741,33.967 33.739,33.821 33.737,33.62 C34.359,33.506 34.924,33.227 35.386,32.83 C35.573,33.02 35.72,33.171 35.731,33.187 C35.802,33.288 35.861,33.405 35.901,33.529 C35.93,33.617 35.948,33.705 35.955,33.789 C36.002,34.33 36.073,36.007 36.105,36.416 C36.11,36.479 36.121,36.539 36.139,36.594 C36.211,36.816 36.378,36.944 36.596,36.945 C36.892,36.948 37.036,36.777 37.028,36.436 C37.024,36.258 37.033,36.321 37.021,36.133 C37.014,36.015 36.952,34.329 36.952,34.329 L37.49,34.816 C37.754,35.068 37.994,35.298 38.235,35.528 C38.46,35.741 38.8,36.113 39.179,35.817 L39.183,35.821 C39.189,35.814 39.193,35.808 39.199,35.801 C39.206,35.795 39.212,35.791 39.219,35.785 L39.215,35.781 C39.51,35.402 39.139,35.062 38.926,34.837 C38.696,34.596 38.466,34.356 38.214,34.092 L37.727,33.554 C37.727,33.554 39.413,33.616 39.531,33.623 C39.719,33.635 39.557,33.628 39.735,33.632 C40.076,33.641 40.247,33.496 40.244,33.2 C40.242,32.982 40.114,32.816 39.892,32.743 C39.837,32.725 39.777,32.714 39.714,32.709 C39.305,32.677 37.727,32.604 37.186,32.556 C37.101,32.549 37.014,32.531 36.926,32.502 C36.797,32.46 36.675,32.398 36.572,32.324 C36.555,32.312 36.367,32.128 36.145,31.908 C36.411,31.443 36.575,30.912 36.602,30.346 C37.001,30.349 37.389,30.352 37.416,30.357 C37.538,30.378 37.662,30.42 37.778,30.479 C37.861,30.521 37.936,30.57 38,30.625 C38.416,30.974 39.652,32.109 39.964,32.376 C40.012,32.417 40.063,32.451 40.114,32.478 C40.322,32.584 40.53,32.556 40.685,32.404 C40.896,32.197 40.878,31.974 40.63,31.739 C40.501,31.616 40.552,31.654 40.411,31.53 C40.322,31.452 39.086,30.303 39.086,30.303 L39.811,30.266 C40.176,30.258 40.508,30.251 40.841,30.243 C41.151,30.235 41.654,30.257 41.713,29.78 L41.719,29.78 C41.719,29.771 41.717,29.763 41.716,29.755 C41.717,29.75 41.719,29.742 41.719,29.733 Z M33.102,32.149 C32.016,32.149 31.132,31.265 31.132,30.179 C31.132,29.092 32.016,28.209 33.102,28.209 C34.188,28.209 35.072,29.093 35.072,30.179 C35.072,31.265 34.188,32.149 33.102,32.149 Z" id="Shape"></path>
                        <path d="M59.09,34.127 C57.125,36.809 54.124,38.416 50.871,38.532 C50.59,38.532 50.29,38.542 49.98,38.542 L49.941,38.552 C49.883,38.552 49.825,38.562 49.757,38.562 C49.041,38.562 48.411,38.01 48.324,37.255 C48.218,36.432 48.779,35.687 49.573,35.58 L49.805,35.551 C49.795,35.541 50.454,35.512 50.744,35.503 C53.087,35.416 55.226,34.264 56.64,32.347 C58.044,30.401 58.479,28.01 57.831,25.783 C56.873,22.404 53.872,20.129 50.348,20.129 L46.824,20.129 L46.824,18.648 C47.172,14.766 46.534,11.717 44.849,9.287 C43.01,6.586 40.425,4.824 37.162,4.05 C36.417,3.885 35.603,3.798 34.771,3.798 C31.47,3.798 26.968,5.269 24.229,9.393 C24.113,9.548 24.035,9.683 23.958,9.819 L23.067,11.31 L21.779,10.603 C20.617,9.964 19.291,9.625 17.936,9.625 C13.58,9.625 9.969,13.168 9.891,17.534 L9.881,18.492 L9,18.889 C8.38,19.17 7.79,19.528 7.122,20.022 C5.98,20.942 5.05,22.191 4.469,23.623 C3.559,25.946 3.695,28.531 4.837,30.719 C5.147,31.3 5.476,31.813 5.844,32.287 C6.173,32.723 6.541,33.11 6.928,33.449 C8.467,34.814 10.471,35.511 12.901,35.521 L13.695,35.608 C14.421,35.773 14.924,36.479 14.828,37.254 C14.731,38.009 14.112,38.561 13.386,38.561 C13.328,38.561 13.26,38.551 13.202,38.542 L12.747,38.542 C7.984,38.484 4.325,36.267 2.156,32.124 C0.597,29.162 0.414,25.657 1.653,22.511 C2.437,20.565 3.696,18.881 5.283,17.622 C5.815,17.225 6.338,16.877 6.919,16.538 L6.929,16.538 C7.481,10.962 12.321,6.596 17.936,6.596 C19.311,6.596 20.695,6.857 21.954,7.361 L21.964,7.351 C25.391,2.501 30.832,0.768 34.772,0.768 C35.789,0.768 36.824,0.874 37.841,1.107 C41.859,2.046 45.063,4.215 47.367,7.564 C49.197,10.246 50.039,13.363 49.952,17.09 L50.349,17.09 C55.238,17.109 59.41,20.265 60.746,24.951 C61.656,28.077 61.046,31.427 59.09,34.127 Z" id="Shape"></path>
                    </g>
                </g>
            </g>
        </g>
    </g>
</svg>