<?xml version="1.0" encoding="UTF-8" standalone="no"?>
<svg width="89px" height="89px" viewBox="0 0 89 89" version="1.1" xmlns="http://www.w3.org/2000/svg" xmlns:xlink="http://www.w3.org/1999/xlink">
    <!-- Generator: Sketch 41 (35326) - http://www.bohemiancoding.com/sketch -->
    <title>sun</title>
    <desc>Created with Sketch.</desc>
    <defs></defs>
    <g id="Page-1" stroke="none" stroke-width="1" fill="none" fill-rule="evenodd">
        <path d="M44.78125,0.96875 C43.7508578,1.08198012 42.9777057,1.96364479 43,3 L43,15 C42.9897994,15.7212718 43.3687506,16.3921627 43.9917457,16.7557754 C44.6147408,17.1193882 45.3852592,17.1193882 46.0082543,16.7557754 C46.6312494,16.3921627 47.0102006,15.7212718 47,15 L47,3 C47.0124076,2.42400765 46.7758491,1.87063673 46.3509071,1.48160533 C45.9259651,1.09257392 45.3539119,0.905666508 44.78125,0.96875 L44.78125,0.96875 Z M15.09375,13.28125 C14.323427,13.3564882 13.6656492,13.8693966 13.4049052,14.5981427 C13.1441612,15.3268888 13.3272555,16.1406597 13.875,16.6875 L22.375,25.1875 C22.8555611,25.7838493 23.6344573,26.0534323 24.3808442,25.8817409 C25.1272312,25.7100495 25.7100495,25.1272312 25.8817409,24.3808442 C26.0534323,23.6344573 25.7838493,22.8555611 25.1875,22.375 L16.71875,13.875 C16.2951199,13.440946 15.6974224,13.2225566 15.09375,13.28125 Z M74.46875,13.28125 C74.0168607,13.3381922 73.5979373,13.5476538 73.28125,13.875 L64.8125,22.375 C64.2161507,22.8555611 63.9465677,23.6344573 64.1182591,24.3808442 C64.2899505,25.1272312 64.8727688,25.7100495 65.6191558,25.8817409 C66.3655427,26.0534323 67.1444389,25.7838493 67.625,25.1875 L76.125,16.6875 C76.7338252,16.0849272 76.8913675,15.1615648 76.5167892,14.3912057 C76.1422109,13.6208466 75.3186743,13.1745225 74.46875,13.28125 L74.46875,13.28125 Z M45,21 C31.768853,21 21,31.76884 21,45 C21,58.2311 31.768853,69 45,69 C58.231147,69 69,58.2311 69,45 C69,31.76884 58.231147,21 45,21 Z M45,25 C56.069385,25 65,33.9306 65,45 C65,56.0694 56.069385,65 45,65 C33.930614,65 25,56.0694 25,45 C25,33.9306 33.930614,25 45,25 Z M2.8125,43 C2.09786685,43.0333552 1.4553308,43.4454782 1.12698541,44.08109 C0.798640021,44.7167019 0.834382644,45.4792111 1.22074624,46.081321 C1.60710983,46.6834309 2.28538025,47.033641 3,47 L15,47 C15.7212718,47.0102006 16.3921627,46.6312494 16.7557754,46.0082543 C17.1193882,45.3852592 17.1193882,44.6147408 16.7557754,43.9917457 C16.3921627,43.3687506 15.7212718,42.9897994 15,43 L3,43 C2.93753436,42.997069 2.87496564,42.997069 2.8125,43 Z M74.8125,43 C74.0978668,43.0333552 73.4553308,43.4454782 73.1269854,44.08109 C72.79864,44.7167019 72.8343826,45.4792111 73.2207462,46.081321 C73.6071098,46.6834309 74.2853802,47.033641 75,47 L87,47 C87.7212718,47.0102006 88.3921627,46.6312494 88.7557754,46.0082543 C89.1193882,45.3852592 89.1193882,44.6147408 88.7557754,43.9917457 C88.3921627,43.3687506 87.7212718,42.9897994 87,43 L75,43 C74.9375344,42.997069 74.8749656,42.997069 74.8125,43 Z M23.5625,64.1875 C23.1106107,64.2444422 22.6916873,64.4539038 22.375,64.78125 L13.875,73.28125 C13.3559601,73.7859082 13.1501169,74.5316374 13.3367862,75.2310921 C13.5234555,75.9305468 14.0734993,76.4745461 14.7749739,76.6534755 C15.4764484,76.8324048 16.2198577,76.6183343 16.71875,76.09375 L25.1875,67.625 C25.8159721,67.0304605 25.9909809,66.0992604 25.6212408,65.317118 C25.2515008,64.5349756 24.4208258,64.0791895 23.5625,64.1875 L23.5625,64.1875 Z M66,64.1875 C65.2214913,64.2632655 64.5585772,64.7858732 64.3031774,65.5251886 C64.0477776,66.2645039 64.2467595,67.0848575 64.8125,67.625 L73.28125,76.09375 C73.7801423,76.6183343 74.5235516,76.8324048 75.2250261,76.6534755 C75.9265007,76.4745461 76.4765445,75.9305468 76.6632138,75.2310921 C76.8498831,74.5316374 76.6440399,73.7859082 76.125,73.28125 L67.625,64.78125 C67.2013699,64.347196 66.6036724,64.1288066 66,64.1875 L66,64.1875 Z M44.78125,72.96875 C43.7508578,73.0819801 42.9777057,73.9636448 43,75 L43,87 C42.9897994,87.7212718 43.3687506,88.3921627 43.9917457,88.7557754 C44.6147408,89.1193882 45.3852592,89.1193882 46.0082543,88.7557754 C46.6312494,88.3921627 47.0102006,87.7212718 47,87 L47,75 C47.0124076,74.4240077 46.7758491,73.8706367 46.3509071,73.4816053 C45.9259651,73.0925739 45.3539119,72.9056665 44.78125,72.96875 Z" id="sun" fill="#FDB631"></path>
    </g>
</svg>
