<?xml version="1.0" encoding="UTF-8" standalone="no"?>
<svg width="50px" height="50px" viewBox="0 0 62 52" version="1.1" xmlns="http://www.w3.org/2000/svg" xmlns:xlink="http://www.w3.org/1999/xlink">
    <!-- Generator: Sketch 41 (35326) - http://www.bohemiancoding.com/sketch -->
    <title>Group</title>
    <desc>Created with Sketch.</desc>
    <defs></defs>
    <g id="Page-1" stroke="none" stroke-width="1" fill="none" fill-rule="evenodd">
        <g id="Group" fill="#FFFFFF">
            <path d="M59.67,30.811 C57.701,28.448 55.114,27.358 52.082,27.358 L49.443,27.358 C50.073,26.334 50.467,25.165 50.585,23.905 C50.913,20.387 47.88,16.71 44.099,16.041 C41.696,15.608 38.073,17.524 37.075,19.743 C36.642,20.701 36.944,21.752 37.771,22.211 C38.638,22.697 39.662,22.487 40.213,21.515 C41.303,19.638 42.891,19.414 44.454,19.808 C46.279,20.267 47.185,22.04 46.883,24.35 C46.634,26.135 45.308,27.317 43.483,27.33 L4.162,27.33 C3.807,27.33 3.453,27.304 3.099,27.343 C2.429,27.435 1.878,27.789 1.563,28.288 C1.392,28.564 1.3,28.892 1.314,29.22 C1.327,30.165 2.115,30.966 3.165,31.019 C4.189,31.071 5.213,31.032 6.237,31.032 L12.775,31.032 C12.827,31.045 12.893,31.045 12.959,31.058 L42.76,31.058 C46.226,31.058 49.705,31.019 53.171,31.071 C55.547,31.11 57.372,32.568 57.556,34.432 C57.753,36.572 56.453,38.2 53.946,38.607 C51.688,38.975 49.535,38.751 47.972,36.717 C47.25,35.785 46.187,35.693 45.359,36.323 C44.584,36.927 44.466,38.069 45.123,38.975 C45.307,39.224 45.517,39.474 45.74,39.684 C49.639,43.544 56.256,43.176 59.709,38.923 C61.731,36.43 61.744,33.293 59.67,30.811 Z" id="Shape"></path>
            <path d="M14.574,40.174 C8.776,40.175 9.427,40.175 3.629,40.174 C3.274,40.174 2.915,40.197 2.565,40.155 C1.525,40.029 0.754,39.208 0.776,38.284 C0.798,37.343 1.577,36.536 2.628,36.48 C3.651,36.426 4.678,36.468 5.704,36.468 C16.591,36.468 21.028,36.462 31.915,36.472 C35.971,36.476 39.295,39.551 39.669,43.602 C39.993,47.113 36.956,50.794 33.18,51.467 C30.771,51.896 27.146,49.985 26.152,47.763 C25.721,46.8 26.017,45.747 26.848,45.288 C27.717,44.809 28.735,45.017 29.293,45.982 C30.383,47.867 31.97,48.082 33.528,47.696 C35.363,47.24 36.265,45.462 35.957,43.151 C35.719,41.371 34.386,40.18 32.564,40.177 C26.565,40.167 20.569,40.173 14.574,40.174 Z" id="Shape"></path>
            <path d="M14.574,11.826 C8.776,11.825 9.427,11.825 3.629,11.826 C3.274,11.826 2.915,11.803 2.565,11.845 C1.525,11.971 0.754,12.792 0.776,13.716 C0.798,14.657 1.577,15.464 2.628,15.52 C3.651,15.574 4.678,15.532 5.704,15.532 C16.591,15.532 21.028,15.538 31.915,15.528 C35.971,15.524 39.295,12.449 39.669,8.398 C39.993,4.887 36.956,1.206 33.18,0.533 C30.771,0.104 27.146,2.015 26.152,4.237 C25.721,5.2 26.017,6.253 26.848,6.712 C27.717,7.191 28.735,6.983 29.293,6.018 C30.383,4.133 31.97,3.918 33.528,4.304 C35.363,4.76 36.265,6.538 35.957,8.849 C35.719,10.629 34.386,11.82 32.564,11.823 C26.565,11.833 20.569,11.827 14.574,11.826 Z" id="Shape"></path>
        </g>
    </g>
</svg>
