<?xml version="1.0" encoding="UTF-8" standalone="no"?>
<svg width="70px" height="70px" viewBox="0 0 60 90" version="1.1" xmlns="http://www.w3.org/2000/svg" xmlns:xlink="http://www.w3.org/1999/xlink">
    <!-- Generator: Sketch 41 (35326) - http://www.bohemiancoding.com/sketch -->
    <title>yellow-flag</title>
    <desc>Created with Sketch.</desc>
    <defs></defs>
    <g id="Page-1" stroke="none" stroke-width="1" fill="none" fill-rule="evenodd">
        <g id="yellow-flag">
            <path d="M30,0 C13.4,0 0,13.4 0,30 C0,42.2 7.3,52.7 17.8,57.4 L30,90 L42.2,57.4 C52.7,52.7 60,42.2 60,30 C60,13.4 46.6,0 30,0 Z" id="Shape" fill="#FDB631"></path>
            <path d="M33.050197,9.19428502 C33.7068737,9.28199859 34.359993,9.39447696 35.0071854,9.52759592 C36.7721486,9.88979909 38.4896993,10.4109179 40.1278327,11.1208781 C43.1267301,12.4190333 45.8541851,14.3476901 47.6416706,16.8067541 C48.6278686,18.1647609 49.3272165,19.6847772 49.6816317,21.250199 C50.066864,22.9477062 50.0467133,24.6988738 49.9115868,26.4345633 C49.7278583,28.7852748 49.3343274,31.1050303 48.7037304,33.3855716 C48.1999631,35.2100049 47.5432864,37.00864 46.4990077,38.672094 C45.6183029,40.0755045 44.4614163,41.3808828 43.0437555,42.3405678 C41.6189838,43.3043803 39.9286966,43.9163099 38.023862,44.2444598 C36.4995222,44.506567 34.8364967,44.5870575 33.6653864,43.8543946 C33.5089234,43.7563624 33.3607552,43.6438824 33.2232572,43.51902 C33.0430861,43.3559769 32.8842515,43.3250192 32.6412566,43.4065416 C28.0990544,44.9358448 23.5568504,46.4661814 19.0134624,47.9954862 C18.9411579,48.0202526 18.9269342,48.0594652 18.9696054,48.1151893 C19.7151819,49.1192462 20.4607565,50.1233047 21.2063329,51.1273616 C21.4256198,51.4224902 21.5477083,51.6711831 21.1399536,51.9002689 C20.7321989,52.1293564 20.5235803,51.9312266 20.3031077,51.6350661 C17.2662784,47.5466013 14.2294511,43.4581366 11.1914379,39.3686399 C10.9899321,39.0972459 10.8808797,38.8805425 11.2080332,38.6277221 C11.6063054,38.3202095 11.8564113,38.5400085 12.0946632,38.8609354 L12.8639459,39.8969834 C12.9232124,39.9764404 13.0132979,39.9609624 13.0358184,39.8691214 C13.8228822,36.4926805 14.6099441,33.1162413 15.3981917,29.7398005 C15.7917227,28.0484845 16.1864394,26.3582003 16.5811562,24.6679161 C16.6605734,24.3242882 16.9023808,24.0281261 16.7494732,23.6308379 C16.675983,23.4389009 16.5171484,23.3026879 16.4057263,23.1365476 C16.1781427,22.7918878 15.9991555,22.4338105 15.8509892,22.0571612 C15.5558405,21.3028275 15.4041188,20.5557184 15.3958202,19.7570128 C15.3602618,16.2784123 18.96605,13.1950362 21.7824047,11.4944334 C24.9982193,9.55132886 29.1077747,8.55139943 33.050197,9.19428502 Z M40.022693,14.8139126 C35.6251017,14.3753464 32.678358,15.3680528 29.6166386,18.1067674 C27.9761355,19.5741569 24.32886,24.3632934 21.4686464,24.9772867 C20.6412829,25.154776 19.8826685,25.1496166 19.0576767,24.9607752 C18.6771837,24.8740936 18.3950729,24.5572942 17.9090868,24.727562 C17.3211609,24.9339451 17.3484227,26.0773121 17.2678196,26.4240373 C16.8849569,28.0606611 16.50328,29.6983168 16.1216012,31.3359741 C15.3582456,34.6092218 14.5948899,37.8824694 13.8315342,41.1567506 C13.826793,41.1794533 13.8303485,41.196995 13.8445741,41.2166021 C15.3203156,43.2030467 16.7948714,45.1894913 18.2706129,47.174904 C18.3002461,47.2151485 18.3310652,47.2244369 18.3832208,47.2068935 C22.2485973,45.9046108 26.1139739,44.6033616 29.9793505,43.3010789 C30.2993912,43.1937599 32.0228689,42.7675761 32.259935,42.4301394 C32.5337471,42.0380088 32.2314875,41.7243067 32.2196335,41.3724222 C32.1935557,40.6232478 32.3820254,39.9576595 32.7008803,39.2745294 C33.5033517,37.5491602 34.8700427,36.2056012 36.0364118,34.715509 C41.1167576,28.225768 45.3993714,23.079586 40.0938136,14.8551889 C40.0772183,14.8293906 40.0570675,14.8170082 40.022693,14.8139126 Z M38.7198919,11.498458 C42.3007881,12.9565607 44.9891273,14.7748029 47.0670202,17.7890389 C49.2219589,20.9147231 49.078532,23.8990334 48.7656041,27.2558672 C48.2464273,32.8529978 46.4968737,41.2466308 38.526681,43.1660007 C33.1405201,44.464156 31.9563718,41.5314406 34.9019278,37.7577115 C36.9987858,35.0716254 39.2260289,32.4742831 41.0194414,29.6024528 C42.900568,26.5902789 44.0384896,23.8340225 43.418559,20.2677084 C42.9088647,17.3380904 41.1367887,13.7470098 38.6155826,11.6305435 C38.5278668,11.5572777 38.6096556,11.4540861 38.7198919,11.498458 Z M39.2208145,13.8541231 C33.5051285,13.4826332 29.714428,16.2523037 26.512839,19.774246 C25.3358016,21.0672402 23.2970263,23.6821243 21.0330371,24.1000515 C18.169268,24.6273615 16.5548408,22.1032866 16.4303808,19.9754698 C16.1933147,15.9179626 22.2764519,11.8047314 25.8869832,10.6541413 C28.3927798,9.85646751 30.7290753,9.76875557 33.3261432,10.1485005 C36.1365728,10.5612684 37.7889299,11.7170178 39.3061588,13.7282289 C39.361868,13.8014963 39.3215683,13.860316 39.2208145,13.8541231 Z" id="Shape" stroke="#FFFFFF" stroke-width="2" fill="#FFFBFB"></path>
        </g>
    </g>
</svg>
