<svg class="svg-icon-wind" viewBox="0 0 20 20" stroke-width="1" fill="none">
  <g transform="translate(0.000000, 2.000000)" stroke="#fff">
    <path id="wind-1" d="M2.70315789,5.45157895 L9.43157895,5.45157895 C10.9168421,5.45157895 12.1231579,4.24631579 12.1231579,2.76 C12.1231579,1.27368421 10.9168421,0.0684210526 9.43157895,0.0684210526 L8.98315789,0.0684210526"></path>

    <path id="wind-2" d="M0.909473684,7.24631579 L14.8147368,7.24631579 C15.8063158,7.24631579 16.6084211,6.44210526 16.6084211,5.45157895 C16.6084211,4.46105263 15.8052632,3.65789474 14.8147368,3.65789474 L14.3652632,3.65789474"></path>

    <path id="wind-3" d="M2.70315789,9.04 L17.5052632,9.04 C18.4947368,9.04 19.2989474,9.84421053 19.2989474,10.8347368 C19.2989474,11.8252632 18.4947368,12.6284211 17.5052632,12.6284211 L17.0557895,12.6284211"></path>

    <path id="wind-4" d="M4.49789474,10.8347368 L11.2263158,10.8347368 C12.7126316,10.8347368 13.9178947,12.04 13.9178947,13.5263158 C13.9178947,15.0126316 12.7115789,16.2178947 11.2263158,16.2178947 L10.7778947,16.2178947"></path>
  </g>
</svg>
